<?xml version="1.0" encoding="UTF-8"?><svg id="Layer_1" xmlns="http://www.w3.org/2000/svg" viewBox="0 0 300 300"><defs><style>.cls-1{fill:#6f7072;}.cls-1,.cls-2,.cls-3,.cls-4,.cls-5,.cls-6{stroke-width:0px;}.cls-2{fill:#f5ab21;}.cls-3{fill:#05a44d;}.cls-4{fill:#5a5a5e;}.cls-5{fill:#902b8a;}.cls-6{fill:#e61389;}</style></defs><path class="cls-1" d="M42.03,275c-7.76,0-14.36-2.74-19.79-8.22-5.44-5.48-8.15-12.11-8.15-19.88v-64.29c0-7.83,2.73-14.49,8.2-19.97,5.46-5.48,12.04-8.23,19.74-8.23s14.34,2.76,19.74,8.27c5.41,5.51,8.11,12.16,8.11,19.93v13.44h-18.26v-13.82c0-2.82-.99-5.23-2.98-7.24-1.98-2-4.37-3-7.17-3s-5.16,1-7.12,3c-1.96,2.01-2.94,4.42-2.94,7.24v64.48c0,2.82.98,5.22,2.94,7.19,1.95,1.97,4.33,2.95,7.12,2.95s5.19-.98,7.17-2.95c1.99-1.97,2.98-4.37,2.98-7.19v-16.26h18.26v16.45c0,7.83-2.74,14.48-8.19,19.93-5.47,5.45-12.02,8.18-19.65,8.18"/><path class="cls-1" d="M100.55,247.28l-4.37,27.72h-18.77l20.31-120.6h24.79l20.04,120.6h-18.96l-4.21-27.72h-18.82ZM110.02,182.03l-6.68,47.54h13.34l-6.67-47.54Z"/><polygon class="cls-1" points="168.3 275 150.08 275 150.08 154.4 201.93 154.4 201.93 172.68 168.3 172.68 168.3 205.56 192.88 205.56 192.88 223.84 168.3 223.84 168.3 275"/><polygon class="cls-1" points="209.47 275 209.47 154.4 260.73 154.4 260.73 172.68 227.47 172.68 227.47 205.56 251.77 205.56 251.77 223.84 227.47 223.84 227.47 256.73 260.73 256.73 260.73 275 209.47 275"/><path class="cls-2" d="M42.03,145.6c-7.76,0-14.36-2.75-19.79-8.23-5.44-5.48-8.15-12.1-8.15-19.88V53.2c0-7.84,2.73-14.49,8.2-19.97,5.46-5.49,12.04-8.23,19.74-8.23s14.34,2.76,19.74,8.28c5.41,5.51,8.11,12.15,8.11,19.92v13.45h-18.26v-13.82c0-2.82-.99-5.23-2.98-7.24-1.98-2-4.37-3-7.17-3s-5.16,1-7.12,3c-1.96,2.01-2.94,4.42-2.94,7.24v64.48c0,2.82.98,5.21,2.94,7.19,1.95,1.98,4.33,2.96,7.12,2.96s5.19-.98,7.17-2.96c1.99-1.97,2.98-4.37,2.98-7.19v-16.27h18.26v16.45c0,7.83-2.74,14.47-8.19,19.92-5.47,5.46-12.02,8.18-19.65,8.18"/><rect class="cls-6" x="87.19" y="25" width="18.02" height="120.6"/><path class="cls-3" d="M145.68,117.88l-4.38,27.72h-18.77l20.31-120.6h24.8l20.02,120.6h-18.95l-4.21-27.72h-18.82ZM155.15,52.62l-6.67,47.54h13.35l-6.68-47.54Z"/><path class="cls-5" d="M232.81,25c7.75,0,14.35,2.75,19.78,8.26,5.43,5.51,8.14,12.15,8.14,19.91v64.26c0,7.83-2.74,14.48-8.19,19.97-5.46,5.47-12.04,8.2-19.73,8.2s-14.34-2.75-19.73-8.26c-5.41-5.51-8.1-12.14-8.1-19.91V53.17c0-7.82,2.72-14.47,8.19-19.95,5.46-5.48,12.01-8.22,19.64-8.22M242.39,52.8c0-2.82-.97-5.22-2.93-7.19-1.95-1.97-4.33-2.96-7.12-2.96s-5.18.99-7.16,2.96c-1.99,1.98-2.99,4.37-2.99,7.19v64.43c0,2.82.99,5.22,2.99,7.19,1.98,1.97,4.36,2.96,7.16,2.96s5.17-.99,7.12-2.96c1.96-1.98,2.93-4.38,2.93-7.19V52.8Z"/><path class="cls-4" d="M284.8,29.15c-.75-1.33-1.77-2.36-3.07-3.07-1.3-.71-2.67-1.08-4.08-1.08s-2.78.37-4.08,1.08c-1.3.72-2.33,1.74-3.07,3.07-.75,1.33-1.12,2.74-1.12,4.19s.37,2.84,1.09,4.16c.74,1.31,1.75,2.34,3.05,3.08,1.31.74,2.69,1.11,4.12,1.11s2.81-.37,4.11-1.11c1.3-.74,2.32-1.76,3.05-3.08.73-1.32,1.09-2.7,1.09-4.16s-.36-2.86-1.11-4.19M283.42,36.69c-.58,1.06-1.4,1.89-2.46,2.49-1.04.59-2.15.89-3.3.89s-2.26-.3-3.31-.89c-1.04-.6-1.86-1.43-2.45-2.49-.59-1.06-.88-2.17-.88-3.35s.3-2.3.89-3.38c.61-1.07,1.43-1.89,2.47-2.47,1.04-.58,2.13-.86,3.27-.86s2.22.28,3.27.86c1.05.57,1.87,1.39,2.47,2.47.6,1.08.91,2.2.91,3.38s-.3,2.29-.89,3.35"/><path class="cls-4" d="M280.81,36.02c-.36-.63-.58-.99-.65-1.07-.24-.34-.44-.57-.59-.68-.14-.11-.35-.23-.61-.34.75-.1,1.33-.38,1.74-.84.42-.45.62-1,.62-1.64,0-.46-.11-.88-.33-1.27-.22-.38-.49-.67-.82-.85-.33-.18-.78-.3-1.37-.35-.2-.01-1.14-.02-2.8-.02h-1.79v8.85h1.79v-3.63h.46c.49,0,.9.12,1.23.37.32.25.73.86,1.22,1.82l.74,1.44h2.19l-1.04-1.78ZM278.62,32.66c-.24.08-.88.11-1.91.11h-.72v-2.41h.72c1.02,0,1.66.03,1.91.12.26.09.46.22.6.42.14.2.21.41.21.65,0,.26-.07.48-.21.68-.15.2-.35.34-.6.43"/></svg>