<?xml version="1.0" encoding="UTF-8"?><svg id="Layer_1" xmlns="http://www.w3.org/2000/svg" viewBox="0 0 300 300"><defs><style>.cls-1{fill:#45352b;}.cls-1,.cls-2{stroke-width:0px;}.cls-2{fill:#ac8c3c;}</style></defs><path class="cls-1" d="M264.63,127.03c-5.37-7.78-7.87-14.95-7.9-24.5-.05-8.43,1.41-19.61-4.11-26.76-5.15-6.65-13.35-9-20.96-11.58-8.55-2.9-15.66-6.29-21.29-13.67-4.87-6.41-9.1-14.67-15.97-19.19-8.13-5.34-16.98-2.98-25.63-.23-9.64,3.08-18.34,5.35-28.36,2.43-7-2.05-14.15-5.51-21.52-5.94-8.1-.47-13.97,3.08-19.07,9.43-4.5,5.62-8.24,12-13.48,16.95-8.85,8.34-21.31,8.54-31.49,14.32-14.63,8.31-9.66,24.88-11.6,38.81-.53,3.8-1.8,7.13-3.45,10.22-.46,1.02-.97,2.03-1.55,3.03-3.06,5.2-7.02,9.8-10.32,14.85-.95,1.65-1.84,3.34-2.57,5.15-5.38,13.36,3.59,23.25,10.63,33.77,3.79,5.65,6.42,11.28,6.84,18.19.39,6.72-.32,13.54.49,20.22.8,6.49,2.99,12.55,8.65,16.25,4.96,3.25,10.55,5.03,16.11,6.91,5.76,1.95,12.02,3.97,16.51,8.33,4.27,4.15,7.46,9.13,10.97,13.92,3.49,4.79,7.59,10.43,13.34,12.61,6.17,2.35,12.55,1.13,18.71-.73,6.93-2.11,14.4-5.4,21.77-5.1,7,.28,13.43,2.77,20.02,4.87,6.29,2.01,13.97,4.45,20.37,1.53,6.93-3.15,11.23-9.53,15.6-15.51,3.71-5.05,7.83-10.8,13.48-13.88,3.63-1.98,8.36-3.33,13.17-4.81,6.44-2,12.98-4.06,17.88-8.83.78-.76,1.46-1.57,2.07-2.41.43-.66.82-1.36,1.15-2.1,5.6-12.52-.29-27.29,5.7-39.61,1.69-3.48,3.98-6.74,6.37-9.98.92-1.26,1.83-2.52,2.77-3.78,4.18-5.79,7.98-11.77,8.32-19.09-.32-9.43-6.56-16.7-11.66-24.09"/><path class="cls-2" d="M267.01,126.56c-5.5-7.94-8.04-15.27-8.07-25.01-.05-8.6,1.43-20.01-4.2-27.32-5.25-6.79-13.6-9.19-21.39-11.82-8.72-2.96-15.98-6.41-21.73-13.95-4.97-6.55-9.29-14.98-16.3-19.6-8.31-5.45-17.33-3.04-26.16-.23-9.84,3.13-18.71,5.46-28.94,2.47-7.14-2.09-14.47-5.62-21.97-6.06-8.27-.47-14.27,3.15-19.46,9.63-4.59,5.73-8.41,12.25-13.78,17.31-9.03,8.51-21.73,8.71-32.12,14.62-14.94,8.48-9.87,25.4-11.84,39.61-.54,3.88-1.84,7.27-3.52,10.43-.48,1.04-.99,2.08-1.6,3.09-3.11,5.31-7.15,10.01-10.53,15.15-.97,1.69-1.88,3.42-2.62,5.27-5.49,13.65,3.67,23.73,10.85,34.46,3.87,5.78,6.55,11.51,6.97,18.57.41,6.85-.31,13.82.52,20.65.81,6.62,3.05,12.8,8.83,16.58,5.06,3.31,10.76,5.13,16.44,7.06,5.89,1.99,12.29,4.05,16.87,8.5,4.36,4.23,7.62,9.31,11.18,14.21,3.59,4.88,7.76,10.63,13.62,12.86,6.31,2.39,12.83,1.16,19.1-.75,7.08-2.14,14.68-5.49,22.22-5.2,7.14.27,13.71,2.83,20.46,4.97,4.19,1.34,8.99,2.87,13.65,2.93h.2c2.39.02,4.73-.37,6.95-1.37,7.05-3.22,11.44-9.72,15.9-15.83,3.77-5.16,7.99-11.02,13.77-14.15,3.71-2.02,8.52-3.41,13.44-4.9,6.55-2.05,13.25-4.16,18.23-9.02.82-.78,1.5-1.61,2.11-2.47.45-.67.84-1.39,1.19-2.16,5.7-12.77-.3-27.85,5.81-40.43,1.72-3.55,4.09-6.87,6.49-10.17.94-1.3,1.9-2.58,2.85-3.87,4.29-5.91,8.13-12.01,8.49-19.48-.32-9.63-6.7-17.04-11.89-24.59M263.79,169.5c-.91,1.21-1.81,2.42-2.69,3.64-2.28,3.12-4.49,6.26-6.13,9.62-5.77,11.88-.1,26.13-5.49,38.2-.32.72-.7,1.4-1.13,2.03-.57.82-1.25,1.6-1.99,2.34-4.71,4.59-11.03,6.58-17.25,8.51-4.65,1.41-9.2,2.72-12.7,4.63-5.44,2.97-9.43,8.5-13,13.38-4.2,5.76-8.36,11.91-15.04,14.96-6.19,2.82-13.57.46-19.64-1.47-6.39-2.02-12.58-4.44-19.32-4.7-7.13-.28-14.31,2.89-21,4.92-5.94,1.8-12.1,2.98-18.07.71-5.54-2.11-9.48-7.54-12.85-12.16-3.37-4.62-6.45-9.43-10.58-13.43-4.33-4.2-10.38-6.15-15.94-8.04-5.36-1.81-10.74-3.54-15.54-6.67-5.44-3.57-7.57-9.41-8.34-15.67-.77-6.45-.09-13.03-.47-19.51-.4-6.67-2.95-12.1-6.6-17.55-6.78-10.14-15.44-19.68-10.23-32.57.69-1.74,1.55-3.38,2.47-4.97,3.18-4.87,7.01-9.31,9.94-14.32.58-.97,1.06-1.94,1.51-2.92,1.59-2.99,2.82-6.2,3.32-9.86,1.88-13.44-2.92-29.42,11.18-37.44,9.84-5.58,21.85-5.76,30.38-13.82,5.07-4.77,8.68-10.93,13.02-16.35,4.89-6.13,10.58-9.55,18.38-9.1,7.11.41,14.02,3.75,20.77,5.72,9.66,2.82,18.05.62,27.37-2.34,8.34-2.66,16.87-4.93,24.71.22,6.63,4.36,10.7,12.32,15.41,18.51,5.42,7.13,12.27,10.38,20.54,13.18,7.34,2.49,15.24,4.75,20.22,11.17,5.32,6.9,3.93,17.69,3.96,25.82.05,9.21,2.46,16.12,7.62,23.62,4.92,7.13,10.95,14.13,11.25,23.24-.33,7.05-3.98,12.82-8.02,18.42"/><path class="cls-2" d="M257.27,130.17c-5.65-8.18-8.31-15.94-8.35-25.94-.04-6.83,1.26-17.66-3.13-23.33-4.28-5.55-11.96-7.67-18.29-9.82-9.05-3.06-16.51-6.75-22.45-14.56-4.27-5.59-8.53-13.71-14.42-17.58-6.62-4.34-14.4-1.95-21.31.25-10.12,3.23-19.15,5.44-29.69,2.36-6.32-1.84-13.32-5.19-19.89-5.57-6.52-.38-11.02,2.6-15.01,7.59-4.51,5.63-8.1,11.78-13.39,16.78-2.68,2.5-5.7,4.42-9,5.96-7.13,3.3-15.39,4.58-22.16,8.42-3.02,1.73-5.22,4-6.6,7.24-2.06,4.91-1.94,11.41-1.98,16.67-.04,3.53-.1,7.06-.59,10.56-.56,3.98-1.94,7.52-3.71,11.09-.53,1.08-1.04,2.15-1.65,3.2-2.99,5.07-6.92,9.42-9.99,14.4-.86,1.38-1.55,2.84-2.16,4.35-1.32,3.3-1.66,6.53-.85,10,1.52,6.54,7.01,13.24,10.7,18.77,4.07,6.07,6.83,12.16,7.27,19.57.39,6.39-.31,12.93.47,19.27.61,4.99,2.16,9.89,6.53,12.76,4.44,2.91,9.66,4.54,14.63,6.22,6.26,2.13,12.56,4.23,17.44,8.97,4.32,4.18,7.51,9.1,11.03,13.94,2.79,3.83,6.48,9.03,11.03,10.76,5.04,1.92,10.52.71,15.49-.79,7.35-2.24,14.42-5.4,22.31-5.09,7.21.29,13.59,2.73,20.37,4.89,4.89,1.55,11.83,3.91,16.8,1.64,5.82-2.65,9.78-8.63,13.46-13.67,4.01-5.5,8.22-11.21,14.32-14.53,4.11-2.24,8.98-3.56,13.44-4.94,5.41-1.67,11.46-3.5,15.62-7.56.54-.53,1.07-1.09,1.47-1.71.3-.44.54-.92.76-1.41.72-1.62,1.23-3.31,1.55-5.06.72-3.79.72-7.76.7-11.61-.02-7.49-.08-14.76,3.3-21.65,1.76-3.65,4.12-6.97,6.51-10.24.88-1.23,1.81-2.44,2.69-3.66,3.42-4.66,7.18-9.98,7.23-16.02.05-7.77-6.34-14.82-10.51-20.88M259.45,166.23c-.91,1.23-1.82,2.45-2.71,3.67-2.43,3.34-4.82,6.72-6.64,10.45-3.46,7.14-3.48,14.54-3.45,22.3.02,3.75.04,7.62-.67,11.32-.31,1.63-.78,3.23-1.45,4.75-.17.41-.38.82-.62,1.19-.38.53-.83,1.04-1.29,1.5-3.98,3.87-9.92,5.63-15.08,7.22-4.62,1.42-9.43,2.73-13.69,5.05-6.32,3.44-10.62,9.23-14.79,14.95-3.49,4.78-7.37,10.69-12.9,13.22-4.52,2.05-11.33-.29-15.79-1.7-6.9-2.2-13.42-4.66-20.75-4.95-3.01-.12-5.98.25-8.91.91-4.72,1.06-9.23,2.83-13.85,4.23-4.64,1.41-9.89,2.62-14.59.83-4.2-1.6-7.8-6.74-10.38-10.29-3.58-4.89-6.84-9.89-11.2-14.12-5.06-4.9-11.48-7.08-17.96-9.28-4.86-1.64-9.99-3.24-14.31-6.06-4-2.63-5.36-7.21-5.92-11.75-.77-6.33-.06-12.81-.45-19.17-.46-7.67-3.31-14-7.52-20.28-3.58-5.36-9.03-11.98-10.5-18.3-.75-3.18-.42-6.12.79-9.14.57-1.42,1.24-2.82,2.05-4.14,3.08-4.98,7.02-9.35,10.02-14.42.62-1.06,1.15-2.17,1.69-3.27,1.83-3.71,3.26-7.42,3.84-11.54.49-3.56.57-7.15.59-10.75.05-5.05-.1-11.42,1.88-16.13,1.24-2.96,3.24-4.99,6-6.56,3.87-2.21,8.25-3.54,12.49-4.87,3.23-1.03,6.47-2.08,9.56-3.5,3.43-1.59,6.6-3.6,9.36-6.2,5.33-5.04,8.98-11.24,13.53-16.92,1.82-2.29,3.97-4.41,6.62-5.7,2.28-1.13,4.69-1.52,7.23-1.37,3.59.21,7.24,1.34,10.63,2.5,2.97,1.01,5.93,2.15,8.94,3.02,10.8,3.15,20.1.93,30.5-2.38,6.4-2.04,13.95-4.46,20.13-.41,3.21,2.13,5.9,5.61,8.1,8.73,2.01,2.82,3.86,5.78,5.96,8.52,6.12,8.05,13.79,11.88,23.11,15.04,5.99,2.03,13.61,4.12,17.64,9.35,4.05,5.24,2.8,16.12,2.83,22.47.03,10.27,2.79,18.35,8.59,26.74,3.92,5.68,10.33,12.79,10.28,20.07-.04,5.66-3.75,10.82-6.94,15.18"/><path class="cls-2" d="M246.53,132.15c-5.07-7.36-7.46-14.34-7.49-23.34-.04-6.14,1.13-15.89-2.82-21.01-3.85-4.99-10.77-6.9-16.48-8.84-8.14-2.76-14.85-6.07-20.21-13.1-3.83-5.03-7.67-12.35-12.97-15.82-5.95-3.92-12.95-1.77-19.18.22-9.1,2.89-17.24,4.89-26.71,2.13-5.69-1.66-11.99-4.68-17.9-5.02-5.87-.34-9.91,2.34-13.52,6.83-4.06,5.07-7.29,10.61-12.05,15.1-2.4,2.26-5.14,3.98-8.1,5.36-6.41,2.98-13.84,4.12-19.92,7.58-2.73,1.55-4.71,3.6-5.95,6.52-1.86,4.42-1.74,10.27-1.79,15.01-.02,3.17-.08,6.36-.53,9.5-.5,3.59-1.75,6.77-3.33,9.99-.47.97-.94,1.94-1.49,2.86-2.69,4.56-6.23,8.49-8.99,12.96-.77,1.24-1.4,2.56-1.96,3.9-1.19,2.98-1.49,5.88-.76,9.01,1.36,5.88,6.3,11.92,9.63,16.9,3.65,5.46,6.15,10.94,6.55,17.61.34,5.74-.28,11.63.41,17.32.55,4.5,1.95,8.9,5.89,11.49,3.99,2.61,8.68,4.09,13.15,5.6,5.63,1.9,11.32,3.8,15.7,8.05,3.89,3.77,6.76,8.21,9.94,12.56,2.52,3.44,5.82,8.12,9.92,9.68,4.54,1.72,9.47.64,13.94-.72,6.64-2,12.98-4.85,20.09-4.58,6.48.26,12.22,2.46,18.32,4.4,4.4,1.4,10.63,3.52,15.12,1.48,5.23-2.39,8.78-7.76,12.11-12.3,3.61-4.96,7.4-10.1,12.9-13.09,3.7-2.02,8.06-3.21,12.08-4.45,4.86-1.5,10.31-3.15,14.06-6.81.5-.47.94-.99,1.33-1.54.27-.4.49-.83.69-1.27.66-1.46,1.1-2.98,1.4-4.56.65-3.4.63-6.98.62-10.43-.02-6.75-.04-13.28,2.97-19.49,1.6-3.29,3.71-6.26,5.85-9.2.81-1.11,1.64-2.2,2.43-3.3,3.08-4.2,6.47-8.98,6.5-14.42.05-6.99-5.7-13.34-9.48-18.8M248.48,164.61c-.8,1.1-1.62,2.2-2.42,3.3-2.2,3-4.35,6.05-5.98,9.4-3.14,6.42-3.12,13.09-3.1,20.07,0,3.38.03,6.87-.6,10.19-.29,1.47-.7,2.91-1.32,4.27-.16.37-.34.74-.57,1.07-.33.49-.75.93-1.15,1.34-3.58,3.48-8.92,5.08-13.58,6.51-4.13,1.28-8.47,2.45-12.31,4.55-5.69,3.1-9.56,8.31-13.32,13.45-3.15,4.3-6.65,9.63-11.62,11.9-4.07,1.84-10.19-.26-14.2-1.54-6.21-1.97-12.07-4.19-18.66-4.45-2.71-.11-5.39.22-8.04.82-4.25.96-8.31,2.55-12.47,3.82-4.15,1.26-8.88,2.34-13.11.74-3.79-1.44-7.04-6.07-9.37-9.25-3.2-4.4-6.14-8.91-10.06-12.73-4.56-4.39-10.33-6.37-16.19-8.35-4.36-1.48-8.97-2.91-12.87-5.45-3.61-2.37-4.8-6.49-5.3-10.57-.7-5.71-.06-11.52-.41-17.26-.42-6.89-2.98-12.59-6.78-18.25-3.22-4.81-8.13-10.78-9.45-16.47-.67-2.86-.4-5.51.71-8.22.52-1.29,1.13-2.54,1.84-3.72,2.77-4.5,6.33-8.43,9.02-12.99.56-.95,1.03-1.95,1.53-2.94,1.63-3.34,2.93-6.68,3.44-10.39.45-3.2.52-6.44.55-9.67.05-4.54-.09-10.29,1.69-14.52,1.12-2.65,2.92-4.48,5.39-5.9,3.49-1.98,7.43-3.18,11.23-4.39,2.91-.93,5.84-1.86,8.61-3.15,3.09-1.44,5.93-3.24,8.43-5.58,4.81-4.53,8.09-10.13,12.19-15.23,1.63-2.06,3.57-3.97,5.94-5.14,2.07-1.02,4.24-1.36,6.5-1.23,3.23.19,6.53,1.2,9.58,2.24,2.68.91,5.33,1.94,8.05,2.73,9.71,2.84,18.09.84,27.44-2.13,5.77-1.84,12.56-4.02,18.11-.37,2.9,1.9,5.31,5.04,7.32,7.86,1.78,2.54,3.46,5.2,5.33,7.67,5.51,7.24,12.42,10.69,20.8,13.54,5.4,1.82,12.26,3.7,15.88,8.41,3.66,4.71,2.52,14.51,2.54,20.22.05,9.24,2.53,16.51,7.74,24.07,3.52,5.11,9.29,11.51,9.24,18.06-.03,5.1-3.38,9.74-6.27,13.67"/><path class="cls-2" d="M249.22,131.66c-5.21-7.56-7.67-14.74-7.72-23.99-.02-6.31,1.19-16.33-2.88-21.59-3.95-5.12-11.06-7.1-16.94-9.08-8.36-2.83-15.26-6.24-20.77-13.47-3.93-5.17-7.88-12.69-13.33-16.27-6.12-4.02-13.31-1.81-19.7.24-9.37,2.98-17.74,5.03-27.47,2.19-5.85-1.7-12.31-4.8-18.39-5.16-6.05-.34-10.2,2.41-13.9,7.03-4.17,5.2-7.49,10.89-12.4,15.51-2.46,2.33-5.27,4.09-8.32,5.51-6.59,3.06-14.22,4.24-20.47,7.8-2.81,1.59-4.86,3.69-6.12,6.7-1.91,4.54-1.79,10.55-1.83,15.42-.04,3.26-.1,6.54-.55,9.77-.52,3.68-1.8,6.96-3.43,10.27-.49,1-.97,1.99-1.54,2.95-2.75,4.68-6.39,8.72-9.24,13.32-.79,1.27-1.44,2.63-2,4.02-1.23,3.05-1.53,6.04-.78,9.25,1.4,6.04,6.47,12.25,9.89,17.36,3.76,5.61,6.33,11.25,6.73,18.1.37,5.9-.28,11.95.43,17.8.56,4.63,1.98,9.16,6.05,11.81,4.09,2.69,8.92,4.2,13.52,5.76,5.78,1.96,11.62,3.91,16.14,8.28,3.99,3.88,6.93,8.43,10.2,12.89,2.59,3.56,6,8.37,10.21,9.97,4.64,1.77,9.72.66,14.32-.73,6.8-2.08,13.34-4.99,20.64-4.71,6.66.26,12.57,2.51,18.83,4.51,4.53,1.44,10.95,3.62,15.54,1.52,5.38-2.46,9.05-7.98,12.45-12.64,3.71-5.1,7.61-10.38,13.26-13.45,3.79-2.07,8.3-3.3,12.42-4.57,5-1.55,10.59-3.25,14.46-7,.51-.48.97-1.01,1.37-1.59.27-.4.49-.85.69-1.3.67-1.5,1.13-3.07,1.44-4.68.67-3.5.65-7.18.64-10.73-.02-6.94-.05-13.65,3.04-20.04,1.65-3.37,3.83-6.44,6.02-9.46.83-1.13,1.67-2.26,2.5-3.38,3.17-4.31,6.65-9.22,6.69-14.83.05-7.18-5.88-13.71-9.74-19.32M251.22,165.02c-.83,1.12-1.67,2.25-2.49,3.39-2.26,3.09-4.46,6.21-6.15,9.66-3.21,6.6-3.2,13.45-3.19,20.62.02,3.47.03,7.05-.61,10.47-.29,1.51-.72,2.98-1.35,4.39-.17.38-.35.75-.57,1.09-.35.51-.77.96-1.2,1.39-3.68,3.57-9.18,5.21-13.94,6.68-4.28,1.32-8.71,2.53-12.66,4.67-5.84,3.19-9.84,8.55-13.69,13.83-3.24,4.42-6.83,9.9-11.94,12.23-4.18,1.91-10.48-.26-14.6-1.57-6.37-2.04-12.4-4.32-19.18-4.58-2.79-.11-5.55.22-8.25.84-4.36.98-8.55,2.61-12.81,3.92-4.29,1.28-9.16,2.41-13.5.76-3.87-1.48-7.23-6.24-9.6-9.51-3.31-4.53-6.34-9.16-10.37-13.08-4.68-4.52-10.61-6.55-16.62-8.57-4.48-1.52-9.23-3-13.23-5.62-3.71-2.43-4.95-6.66-5.47-10.87-.72-5.86-.05-11.84-.4-17.73-.44-7.09-3.07-12.95-6.96-18.76-3.32-4.95-8.36-11.09-9.71-16.93-.69-2.95-.4-5.66.72-8.45.54-1.32,1.15-2.61,1.9-3.82,2.85-4.61,6.49-8.66,9.26-13.35.58-.98,1.07-2.01,1.58-3.03,1.68-3.42,3.01-6.86,3.55-10.67.46-3.29.52-6.62.56-9.93.04-4.67-.1-10.58,1.72-14.92,1.17-2.74,3-4.62,5.55-6.07,3.58-2.04,7.64-3.27,11.55-4.51,2.99-.95,5.99-1.92,8.85-3.24,3.17-1.48,6.11-3.33,8.66-5.74,4.95-4.65,8.32-10.39,12.52-15.64,1.7-2.11,3.69-4.07,6.13-5.28,2.12-1.04,4.35-1.4,6.7-1.26,3.3.2,6.69,1.24,9.82,2.31,2.76.94,5.48,1.99,8.28,2.8,9.99,2.92,18.6.86,28.21-2.2,5.94-1.89,12.91-4.12,18.62-.38,2.98,1.95,5.46,5.17,7.51,8.07,1.85,2.61,3.56,5.35,5.49,7.89,5.69,7.44,12.77,10.99,21.39,13.91,5.54,1.87,12.59,3.81,16.32,8.65,3.74,4.84,2.58,14.91,2.6,20.79.05,9.49,2.6,16.96,7.95,24.73,3.62,5.26,9.55,11.82,9.51,18.56-.04,5.25-3.48,10.01-6.43,14.06"/><path class="cls-2" d="M251.89,131.16c-5.35-7.76-7.87-15.14-7.91-24.63-.03-6.49,1.21-16.78-2.95-22.17-4.09-5.27-11.37-7.28-17.41-9.33-8.6-2.91-15.68-6.4-21.32-13.83-4.05-5.32-8.12-13.03-13.7-16.7-6.29-4.12-13.68-1.86-20.25.23-9.59,3.07-18.19,5.17-28.18,2.25-6.01-1.75-12.67-4.92-18.89-5.29-6.21-.35-10.49,2.48-14.28,7.22-4.28,5.35-7.68,11.19-12.72,15.94-2.53,2.38-5.4,4.2-8.55,5.65-6.78,3.14-14.61,4.35-21.03,8.01-2.89,1.63-4.98,3.79-6.27,6.88-1.96,4.66-1.84,10.84-1.89,15.83-.04,3.35-.1,6.71-.55,10.02-.54,3.79-1.86,7.15-3.53,10.55-.5,1.03-.99,2.05-1.56,3.03-2.84,4.81-6.58,8.95-9.5,13.67-.81,1.31-1.48,2.7-2.05,4.13-1.26,3.14-1.57,6.2-.8,9.5,1.44,6.21,6.65,12.58,10.16,17.83,3.85,5.77,6.49,11.56,6.92,18.6.36,6.07-.31,12.28.44,18.29.58,4.75,2.04,9.39,6.22,12.13,4.2,2.76,9.16,4.31,13.88,5.91,5.95,2.01,11.93,4.03,16.56,8.51,4.13,3.98,7.14,8.66,10.5,13.25,2.65,3.64,6.15,8.58,10.47,10.23,4.79,1.82,9.99.67,14.71-.75,7-2.12,13.71-5.13,21.2-4.84,6.85.28,12.91,2.59,19.35,4.64,4.64,1.48,11.23,3.71,15.96,1.57,5.52-2.53,9.28-8.2,12.77-12.99,3.83-5.23,7.83-10.66,13.63-13.82,3.9-2.13,8.52-3.38,12.76-4.69,5.13-1.59,10.89-3.33,14.84-7.19.52-.5,1-1.04,1.41-1.63.28-.42.53-.87.71-1.33.69-1.54,1.16-3.15,1.5-4.81.68-3.59.67-7.37.65-11.02-.02-7.13-.06-14.02,3.13-20.58,1.68-3.46,3.95-6.61,6.17-9.72.88-1.16,1.72-2.31,2.58-3.48,3.25-4.43,6.82-9.48,6.86-15.23.05-7.38-6.01-14.08-10-19.84M253.97,165.42c-.86,1.16-1.73,2.32-2.57,3.48-2.3,3.17-4.59,6.38-6.29,9.93-3.32,6.77-3.32,13.81-3.29,21.17.03,3.57.03,7.24-.64,10.76-.28,1.55-.72,3.07-1.37,4.51-.18.39-.38.78-.6,1.13-.36.52-.8.98-1.24,1.42-3.76,3.68-9.41,5.35-14.3,6.86-4.39,1.35-8.96,2.59-13.01,4.81-6.01,3.26-10.09,8.77-14.06,14.2-3.31,4.53-7.01,10.16-12.26,12.54-4.28,1.96-10.75-.26-14.99-1.61-6.55-2.09-12.74-4.43-19.7-4.71-2.87-.11-5.68.24-8.47.87-4.5,1.01-8.77,2.69-13.16,4.03-4.4,1.33-9.4,2.48-13.85.78-4-1.52-7.42-6.41-9.88-9.77-3.39-4.65-6.48-9.4-10.64-13.42-4.8-4.65-10.89-6.73-17.06-8.81-4.6-1.56-9.48-3.07-13.59-5.76-3.8-2.5-5.08-6.84-5.62-11.16-.74-6.02-.06-12.16-.42-18.21-.44-7.28-3.15-13.3-7.14-19.27-3.41-5.08-8.58-11.37-9.97-17.38-.71-3.02-.41-5.82.74-8.69.54-1.35,1.18-2.68,1.95-3.92,2.92-4.74,6.67-8.89,9.51-13.7.6-1,1.09-2.06,1.61-3.12,1.75-3.52,3.11-7.04,3.65-10.95.48-3.38.54-6.8.57-10.21.04-4.8-.1-10.86,1.78-15.32,1.18-2.81,3.09-4.74,5.7-6.23,3.67-2.1,7.84-3.36,11.86-4.63,3.06-.97,6.14-1.96,9.07-3.33,3.27-1.51,6.26-3.41,8.89-5.89,5.07-4.79,8.54-10.69,12.86-16.08,1.74-2.16,3.79-4.18,6.29-5.42,2.18-1.07,4.46-1.43,6.88-1.29,3.4.2,6.88,1.26,10.1,2.36,2.81.96,5.62,2.04,8.48,2.88,10.26,2.99,19.09.88,28.98-2.26,6.08-1.95,13.24-4.24,19.1-.39,3.06,2.01,5.61,5.32,7.72,8.29,1.9,2.68,3.66,5.49,5.66,8.1,5.8,7.64,13.1,11.29,21.95,14.29,5.7,1.93,12.94,3.91,16.76,8.88,3.87,4.98,2.66,15.32,2.69,21.35.05,9.76,2.67,17.42,8.16,25.4,3.72,5.4,9.81,12.15,9.76,19.06-.04,5.39-3.57,10.28-6.6,14.43"/><path class="cls-2" d="M254.58,130.66c-5.5-7.97-8.08-15.53-8.13-25.28-.04-6.66,1.24-17.22-3.03-22.75-4.2-5.41-11.67-7.48-17.87-9.58-8.81-2.99-16.08-6.57-21.89-14.19-4.15-5.45-8.32-13.38-14.04-17.15-6.47-4.23-14.05-1.9-20.8.25-9.86,3.14-18.66,5.3-28.92,2.31-6.17-1.81-12.99-5.07-19.39-5.44-6.37-.37-10.76,2.54-14.66,7.41-4.39,5.49-7.89,11.48-13.06,16.35-2.6,2.44-5.55,4.31-8.76,5.8-6.95,3.23-15,4.47-21.6,8.22-2.96,1.68-5.1,3.9-6.44,7.06-2.02,4.79-1.89,11.12-1.94,16.25-.03,3.43-.1,6.89-.57,10.3-.54,3.88-1.9,7.34-3.62,10.82-.52,1.04-1.01,2.1-1.6,3.11-2.92,4.93-6.75,9.19-9.74,14.03-.83,1.34-1.51,2.78-2.1,4.24-1.29,3.22-1.62,6.37-.83,9.75,1.47,6.37,6.83,12.91,10.43,18.3,3.97,5.92,6.67,11.86,7.1,19.08.37,6.23-.32,12.6.45,18.78.59,4.88,2.1,9.65,6.37,12.44,4.33,2.84,9.41,4.43,14.25,6.07,6.11,2.06,12.25,4.13,17.01,8.73,4.21,4.09,7.32,8.88,10.76,13.6,2.73,3.74,6.33,8.81,10.77,10.51,4.89,1.86,10.23.69,15.08-.78,7.19-2.18,14.07-5.26,21.75-4.96,7.03.27,13.26,2.65,19.88,4.76,4.76,1.52,11.52,3.8,16.36,1.6,5.68-2.59,9.53-8.42,13.13-13.32,3.92-5.37,8.01-10.95,13.97-14.18,4-2.19,8.74-3.48,13.1-4.82,5.27-1.63,11.17-3.42,15.23-7.37.53-.5,1.02-1.06,1.44-1.66.28-.43.54-.9.74-1.37.71-1.59,1.21-3.25,1.52-4.94.71-3.69.7-7.56.69-11.31-.05-7.31-.09-14.4,3.2-21.12,1.74-3.56,4.04-6.79,6.35-9.98.86-1.19,1.75-2.38,2.64-3.56,3.34-4.55,6.99-9.73,7.03-15.62.05-7.58-6.16-14.46-10.25-20.37M256.69,165.82c-.87,1.2-1.75,2.38-2.63,3.58-2.37,3.26-4.71,6.55-6.47,10.19-3.4,6.95-3.38,14.17-3.35,21.73,0,3.67.02,7.43-.66,11.05-.3,1.59-.76,3.15-1.42,4.63-.18.39-.36.8-.62,1.15-.37.53-.81,1.01-1.26,1.45-3.86,3.78-9.66,5.5-14.67,7.05-4.5,1.39-9.21,2.66-13.37,4.93-6.15,3.35-10.36,9.01-14.42,14.57-3.42,4.66-7.19,10.44-12.6,12.89-4.37,2-11.03-.28-15.37-1.66-6.71-2.15-13.08-4.54-20.23-4.82-2.94-.12-5.84.24-8.7.89-4.6,1.03-9,2.76-13.49,4.13-4.53,1.36-9.65,2.55-14.22.8-4.1-1.56-7.62-6.56-10.14-10.02-3.47-4.77-6.65-9.65-10.92-13.78-4.91-4.77-11.18-6.9-17.51-9.04-4.73-1.61-9.73-3.16-13.95-5.93-3.9-2.56-5.22-7.02-5.76-11.45-.75-6.17-.06-12.48-.44-18.69-.45-7.47-3.24-13.65-7.33-19.77-3.49-5.22-8.8-11.68-10.24-17.84-.72-3.1-.42-5.97.78-8.91.55-1.39,1.2-2.75,1.99-4.03,3-4.86,6.84-9.12,9.76-14.07.6-1.03,1.11-2.12,1.65-3.19,1.78-3.61,3.19-7.23,3.75-11.25.48-3.46.55-6.97.59-10.48.05-4.92-.11-11.14,1.82-15.72,1.22-2.88,3.17-4.86,5.86-6.39,3.78-2.15,8.05-3.45,12.16-4.75,3.16-1,6.32-2.02,9.32-3.42,3.35-1.55,6.43-3.5,9.13-6.05,5.22-4.9,8.77-10.95,13.19-16.5,1.79-2.22,3.86-4.28,6.45-5.56,2.23-1.09,4.59-1.47,7.05-1.32,3.5.19,7.06,1.3,10.37,2.42,2.9.99,5.77,2.09,8.71,2.95,10.53,3.07,19.6.91,29.74-2.32,6.25-1.99,13.59-4.36,19.61-.4,3.14,2.06,5.76,5.46,7.93,8.51,1.93,2.75,3.74,5.62,5.78,8.31,5.97,7.85,13.45,11.59,22.54,14.66,5.83,1.98,13.26,4.02,17.19,9.12,3.96,5.11,2.73,15.72,2.76,21.91.06,10.02,2.73,17.88,8.39,26.07,3.82,5.53,10.06,12.47,10.02,19.57-.04,5.52-3.66,10.55-6.79,14.8"/><path class="cls-2" d="M151.07,88.81s-.02-.04-.03-.04c0,0,.02.02.02.04v.05h0v-.05s0,0,0,0"/><path class="cls-2" d="M139.48,94.67s.08-.01.12-.03c-.04.01-.08.02-.12.03"/><path class="cls-2" d="M128.22,96.46c-.15-.05-.3-.09-.45-.1.15.02.3.06.45.1"/><path class="cls-2" d="M148.69,93.13s.02-.02.02-.03c0,0-.02.02-.02.03"/><path class="cls-2" d="M137.01,94.14s.03.02.05.03c-.02-.02-.03-.02-.05-.03"/><path class="cls-2" d="M138.64,94.71s.08-.02.12-.03c-.04.01-.08.02-.12.03"/><path class="cls-2" d="M141.32,93.14s.06-.06.1-.08c-.03.03-.07.05-.1.08"/><path class="cls-2" d="M151.15,88.8s0,0,.01,0c0,0,0,0-.01,0"/><path class="cls-2" d="M151.05,88.85s-.04-.02-.07-.04c.02.01.05.02.07.04"/><path class="cls-2" d="M148.91,92.61c-.06.16-.12.32-.18.47,0,0,0,0-.01,0,.01,0,.02,0,.03,0,0,0,0,0-.01,0,.06-.16.12-.32.17-.48"/><path class="cls-2" d="M141.15,93.45c.01-.06.04-.12.07-.17-.03.05-.05.11-.07.17"/><path class="cls-2" d="M128.85,96.62c.12.03.25.05.37.07-.16-.03-.32-.07-.48-.1.04,0,.07.02.11.03"/><path class="cls-2" d="M133.11,95.22s.04-.05.06-.07c-.02.03-.04.05-.06.07"/><path class="cls-2" d="M152.06,93.58c-.1,0-.2-.02-.3-.04.1.03.2.05.3.04"/><path class="cls-2" d="M127.64,96.04s.07-.08.1-.12c-.03.04-.07.08-.1.12"/><path class="cls-2" d="M148.77,93.09s.02.05.02.08c0-.03,0-.07-.02-.08"/><polyline class="cls-2" points="128.01 95.62 128.02 95.62 128.01 95.62"/><path class="cls-2" d="M133.06,97.25c.15.03.3.04.43.04-.05,0-.1-.01-.14-.03-.08-.03-.18-.02-.29-.01"/><path class="cls-2" d="M127.68,96.32s-.07-.03-.11-.04c.04.01.07.03.11.04"/><path class="cls-2" d="M122.41,85.68s0,0,0,0c0,0,0,0,0,0,0,0,0,0,0,.01"/><polyline class="cls-2" points="128.43 95.41 128.44 95.41 128.43 95.41"/><path class="cls-2" d="M147.65,93.18c0-.09,0-.17.03-.25-.04.12-.04.25-.02.39.01.09.08.13.15.16-.1-.05-.15-.15-.16-.3"/><path class="cls-2" d="M149.09,91.54c-.12-.01-.24,0-.36,0,.12,0,.24,0,.36,0"/><path class="cls-2" d="M132.81,95.42s.07-.03.11-.05c-.03.02-.07.04-.11.05"/><path class="cls-2" d="M128.46,88.52s.05.02.08.03h0s-.05-.03-.07-.03"/><path class="cls-2" d="M132.28,97.16c-.14-.05-.31-.03-.46-.05.2.02.4.05.6.09.05,0,.1.01.15,0,0,0-.02,0-.03,0-.08,0-.17,0-.26-.04"/><path class="cls-2" d="M128.95,94.74s-.02.03-.03.04c.02-.02.04-.04.05-.07,0,.01-.01.02-.03.03"/><path class="cls-2" d="M122.69,85.81s.04.04.06.05c0-.01-.02-.02-.04-.04,0,0-.01-.01-.02-.02"/><path class="cls-2" d="M151.84,92.16c-.02-.05-.04-.1-.06-.16.01.04.02.08.04.12,0,.01.01.02.02.03"/><path class="cls-2" d="M144.68,94.9c-.09.15-.18.3-.26.45.08-.15.17-.3.26-.45"/><path class="cls-2" d="M152.23,92.7c-.06-.07-.12-.14-.18-.21.03.04.06.08.1.12.03.03.06.06.08.09"/><path class="cls-2" d="M150.81,91.76s0-.07-.02-.11c0,.03,0,.06.02.11"/><path class="cls-2" d="M151.17,91.6s-.03,0-.05,0c.02,0,.03,0,.05,0"/><path class="cls-2" d="M144.3,95.6s-.03.07-.05.11c.02-.04.03-.07.05-.11"/><path class="cls-2" d="M143.99,96.37c-.09.01-.17.03-.25.07.08-.02.17-.04.25-.07"/><path class="cls-2" d="M151.05,92.36c-.07-.19-.12-.39-.23-.57.09.18.16.37.23.57"/><path class="cls-2" d="M152.38,92.98s.02.09.02.13c0-.05-.01-.09-.02-.13"/><path class="cls-2" d="M151.35,93.19s.01,0,.02,0c0,0,0,0,0,0,0,0,0,0-.01,0"/><path class="cls-2" d="M136.79,97.5s-.01,0-.02,0c0,0,.01,0,.02,0,.02,0,.04,0,.06,0-.02,0-.04,0-.06,0"/><path class="cls-2" d="M139.63,96.77c-.08.04-.15.08-.23.13.08-.04.15-.08.23-.13"/><path class="cls-2" d="M141.78,96.66c-.27,0-.55,0-.82,0,.27.02.55.02.82,0"/><path class="cls-2" d="M151.93,92.34s.03.05.05.08c-.02-.03-.04-.05-.05-.08"/><path class="cls-2" d="M141.93,93.32s.01-.05.02-.07c0,.03-.01.06-.03.08,0,0,0,0,0-.01"/><path class="cls-2" d="M131,97.02s.08,0,.12.01c-.19-.02-.37-.05-.56-.09.15.02.29.05.44.07"/><polyline class="cls-2" points="142.55 93.49 142.56 93.49 142.55 93.49"/><path class="cls-2" d="M141.97,93.12s0,.04,0,.06c0-.02,0-.04,0-.06"/><polyline class="cls-2" points="145.14 94.28 145.13 94.29 145.14 94.28"/><path class="cls-2" d="M151.59,91.56s0,.01.02.02c0,0,0-.01-.02-.02"/><path class="cls-2" d="M134.15,97.34c-.11-.02-.21-.02-.32-.02.11,0,.21.01.32.02"/><path class="cls-2" d="M150.82,91.79s0-.02,0-.02c0,.02,0,.04,0,.06,0-.01,0-.03,0-.04t0,0"/><path class="cls-2" d="M143.6,93.83c.05.01.11.03.16.04-.05-.03-.1-.05-.16-.04"/><path class="cls-2" d="M136.08,97.43c-.08,0-.17,0-.25,0,.08,0,.17,0,.25,0"/><path class="cls-2" d="M150.82,91.84s-.01.04-.05.05c.04,0,.05-.02.05-.05"/><path class="cls-2" d="M152.36,92.9s-.02-.03-.03-.05c.01.03.03.06.04.09,0-.01,0-.03,0-.04"/><path class="cls-2" d="M148.39,91.7c.03-.11.06-.17.14-.17-.01,0-.03,0-.04,0-.04,0-.09.09-.1.16-.09.4-.29.74-.59,1.03-.06.06-.09.13-.12.2.03-.08.07-.15.13-.21.29-.28.48-.62.58-1"/><path class="cls-2" d="M146.82,94.32h.53c-.18,0-.36,0-.53,0"/><path class="cls-2" d="M137.42,94.47c.14.04.28.09.41.16.03.02.08.05.1.05.03,0,.06,0,.09,0-.05-.01-.11-.02-.16-.04-.18-.05-.35-.14-.53-.2-.09-.03-.17-.07-.19-.14-.01-.03-.03-.05-.04-.07.01.02.02.04.03.07.04.12.19.15.29.18"/><path class="cls-2" d="M145.48,94.82s.01,0,.02-.01c0,0-.01,0-.02.01"/><path class="cls-2" d="M144.69,96.72s0-.03,0-.04c0,.01,0,.03,0,.04"/><polyline class="cls-2" points="145.18 95.11 145.18 95.1 145.18 95.11"/><path class="cls-2" d="M144.85,95.68s.02-.05.02-.07c0,.02-.02.05-.02.07"/><path class="cls-2" d="M139.4,94.67s-.06,0-.09-.01c.03,0,.06.01.09.01"/><path class="cls-2" d="M140.02,94.12c-.04.05-.07.12-.09.2-.02.05-.04.08-.07.12.01-.01.02-.02.03-.03.07-.08.09-.19.13-.29"/><path class="cls-2" d="M144.83,95.89c0,.18-.03.36-.07.54.05-.15.09-.31.07-.47,0-.03,0-.05,0-.07"/><path class="cls-2" d="M144.76,96.81s.04.04.07.05c0-.05-.04-.05-.07-.05"/><path class="cls-2" d="M148,94.52c-.12.05-.17.16-.24.26.03-.04.07-.07.09-.11.04-.06.08-.12.15-.15,0,0,0,0,0,0,0-.01,0-.03,0-.04,0-.01,0-.02.01-.04-.01.02-.03.05-.01.08"/><path class="cls-2" d="M144.77,96.74s.1.02.24-.04c.26-.11.51-.22.77-.34-.28.14-.57.25-.87.35-.08.02-.11.03-.14.03"/><path class="cls-2" d="M146.69,95.82c-.27.19-.55.36-.84.51.38-.19.75-.4,1.08-.67.28-.23.53-.5.76-.79-.3.36-.62.68-1,.95"/><path class="cls-2" d="M136.98,94.13c-.08-.03-.18,0-.27,0-.04,0-.08,0-.11.01.07,0,.14,0,.21-.02.06,0,.13-.01.18,0"/><path class="cls-2" d="M128.57,95.3s-.01.01-.02.02c0,0,.01-.02.02-.02"/><path class="cls-2" d="M133.26,94.82s0,.05,0,.08c0-.02,0-.05,0-.08"/><path class="cls-2" d="M133.07,95.25s-.09.08-.15.12c.05-.03.1-.07.15-.12"/><path class="cls-2" d="M127.73,96.36s0,0,0,.01c0,0,0,0,0,0,0,0,0,0,0,0"/><path class="cls-2" d="M130.96,95.49c.1.04.19.06.29.09-.06-.02-.13-.03-.19-.06-.23-.1-.48-.15-.73-.18-.07-.01-.14-.03-.2-.05.11.04.22.07.34.08.17.02.33.07.49.13"/><path class="cls-2" d="M133.11,94.2c-.05.09-.04.17,0,.26.02.04.04.07.05.11,0,0,0-.01,0-.02-.07-.14-.08-.25-.05-.35"/><path class="cls-2" d="M135.41,94.28c.09,0,.18-.01.26-.03-.25.02-.51.03-.76.03h0c.17,0,.33-.01.5,0"/><path class="cls-2" d="M136.3,94.18s-.07,0-.1.01c0,0,.02,0,.03,0,.02,0,.05,0,.07,0"/><path class="cls-2" d="M130.1,95.28c-.2-.08-.35-.21-.49-.38-.07-.09-.17-.16-.26-.22-.08-.06-.13-.08-.17-.09.19.1.36.21.5.39.11.15.26.24.43.3"/><path class="cls-2" d="M133.64,93.85c-.14.03-.28.09-.39.18.04-.03.07-.05.12-.08.09-.04.18-.08.27-.1"/><path class="cls-2" d="M134.86,94.28c-.24,0-.44-.07-.61-.24.16.18.37.24.61.24"/><path class="cls-2" d="M127.62,96.06s-.05.04-.07.06c.02-.02.05-.04.07-.06"/><path class="cls-2" d="M144.22,94.03s-.05-.01-.07-.02c.01,0,.02,0,.03.01.01,0,.02,0,.04,0"/><path class="cls-2" d="M149.28,91.69s0-.03,0-.04c0,.01,0,.03,0,.04"/><path class="cls-2" d="M142.23,96.6s.09-.01.14-.02c.09-.02.19-.02.29-.02-.14,0-.28,0-.42.04"/><path class="cls-2" d="M139.88,96.64s-.05.03-.08.04c.19-.09.39-.12.61-.09-.03,0-.06-.01-.09-.02-.15-.04-.29.01-.43.07"/><path class="cls-2" d="M148.97,88.76s-.02.01-.03.02c.01,0,.03-.01.04-.02,0,0,0,0-.01,0"/><path class="cls-2" d="M143.02,96.56c.12,0,.24-.02.35-.04-.12,0-.23.03-.35.04"/><path class="cls-2" d="M149.24,91.75s0,.03,0,.04c-.02,0-.03.01-.03.02,0,0,0-.02.03-.02,0,.01,0,.02,0,.03,0,0,0-.01,0-.02,0-.01.02-.02.03-.03,0,0-.02.02-.04.02,0-.01,0-.03,0-.04"/><path class="cls-2" d="M148.98,88.82s0,0,0,0c.01,0,.02,0,.03-.02,0,0-.02,0-.03.01,0,0,0,0-.01.01"/><path class="cls-2" d="M137.32,97.38c.11-.02.22-.05.33-.07-.08,0-.17.01-.25.04-.03.01-.06.02-.08.03"/><path class="cls-2" d="M148.87,88.8s-.07,0-.1,0c0,0,.02,0,.03,0,.03,0,.05,0,.07,0"/><polyline class="cls-2" points="149 88.76 149 88.76 149 88.76"/><path class="cls-2" d="M144.1,96.18v.07c.02-.12.05-.23.08-.34-.02.05-.04.09-.05.14-.01.04-.03.09-.03.13"/><path class="cls-2" d="M138.09,97.24c.13-.02.25-.04.38-.05.12-.01.23-.03.34-.06-.07.01-.15.03-.23.04-.16,0-.33.03-.49.08"/><path class="cls-2" d="M149.02,88.77s0,0,0,0c0,0,0,0,0,.01,0,0,0,0,0,0"/><path class="cls-2" d="M141.92,92.91c-.03-.05-.09-.08-.19-.03-.08.04-.16.08-.23.12.08-.04.15-.07.23-.11.08-.04.15-.03.2.02"/><path class="cls-2" d="M141.63,93.69h0s.07-.08.11-.11c-.02.02-.03.03-.05.05-.02.02-.09,0-.06.07"/><path class="cls-2" d="M149.18,91.83s0,.04,0,.07h0s0,0,0,0c0,0,0,0,0,0,0-.02,0-.04,0-.06"/><path class="cls-2" d="M148.39,93.46c-.12.03-.23.07-.36.07.12,0,.25-.01.36-.07"/><path class="cls-2" d="M147.89,93.52s.04,0,.06,0c-.03,0-.05,0-.07-.01,0,0,.01,0,.02,0"/><path class="cls-2" d="M140.62,93.91s-.07.01-.11,0c-.06,0-.1,0-.15,0,.09,0,.17,0,.26-.01"/><path class="cls-2" d="M149.23,92.04s-.04-.01-.04-.03c0,.01.02.02.04.03"/><path class="cls-2" d="M149.23,92s0,.03,0,.04h0s0-.03,0-.04"/><path class="cls-2" d="M143.35,93.82c.06,0,.11,0,.16,0-.17,0-.32-.05-.46-.15.05.02.09.05.13.09.04.03.14.06.17.06"/><path class="cls-2" d="M143.01,93.66c-.08-.06-.17-.1-.25-.13.05.02.09.04.14.07.04.02.07.04.11.06"/><path class="cls-2" d="M149.19,92.01s0-.02,0-.04c0,.01,0,.02,0,.04"/><path class="cls-2" d="M136.97,97.46h0s-.02.03-.02.04c0,0,.02-.02.03-.04,0,0,0,0,0,0h0"/><path class="cls-2" d="M141.76,93.72c.2-.04.39-.13.59-.2.02,0,.03,0,.05,0-.11.02-.22.05-.32.1-.12.06-.25.09-.41.1.03.02.06.01.1,0"/><path class="cls-2" d="M149.02,92.35c.05-.14.1-.27.17-.4h0c-.1.11-.1.26-.16.38,0,0,0,.01,0,.02"/><path class="cls-2" d="M168.36,85.81s-.02.02-.03.02c.01,0,.02-.01.03-.02"/><path class="cls-2" d="M168.21,85.87s0,0,.01,0c0,0,0,0,0-.01,0,0,0,.01,0,.02"/><path class="cls-2" d="M130.38,84.44s0,.01,0,.02c0-.01,0-.02,0-.03,0,0,0,0,0,.01"/><path class="cls-2" d="M130.41,84.3c.02-.06.04-.12.09-.18-.04.06-.07.11-.09.18"/><path class="cls-2" d="M168.41,85.7s0,0,0,0c0,.02-.01.03-.02.04,0-.01.02-.02.02-.04"/><path class="cls-2" d="M134.89,85.32c-.04-.11-.09-.22-.13-.32,0,.03,0,.06-.01.08.02.02.03.04.05.06.04.06.07.12.1.18"/><path class="cls-2" d="M134.97,85.52c-.03-.06-.05-.12-.07-.17.01.04.02.08.02.12.02.02.03.04.05.06"/><path class="cls-2" d="M131.45,85.65s-.02,0-.03-.02c0,0,0,.02,0,.03.01,0,.02,0,.03-.01"/><path class="cls-2" d="M178.15,84.07c-.16-.71-.61-1.22-1.23-1.55-.62-.33-1.31-.44-2.01-.46h-1.39c-.37,0-.72.07-1.09.09-.54.04-1.08.13-1.61.22-.77.14-1.53.3-2.29.48-.11.03-.22.05-.33.08h0s0-.01,0-.01c-.06,0-.72.17-1.42.36-.11.03-.23.05-.34.08-.22.06-.43.12-.65.18-.34.09-.62.17-.75.21h0c-.12.04-.25.08-.37.11-.27.08-.54.16-.82.22-.7.15-1.4.23-2.12.27-.49.02-.98.07-1.46.11-.55.05-1.1.12-1.65.18-.59.07-1.19.12-1.77.21-.8.12-1.59.23-2.38.38-.9.18-1.8.34-2.66.65-.44.16-.82,0-1.2-.22-.15-.08-.17-.27-.24-.43-.05-.12.09-.17.1-.26.04-.24.32-.38.3-.65-.02-.24.12-.37.27-.51.2-.2.27-.54.13-.72-.15-.2-.31-.38-.53-.51-.53-.32-1.24-.2-1.71.26-.34.34-.29.84.03,1.07.08.05.09.11.11.2.05.21.01.43.21.63.1.1.25.3.23.51-.03.39-.73.79-1.1.64-.54-.21-1.1-.33-1.65-.46-.67-.16-1.34-.27-2.02-.38-.47-.08-.93-.16-1.4-.21-.45-.05-.89-.11-1.34-.17-.51-.06-1.03-.12-1.55-.18-.44-.05-.88-.08-1.32-.12-.61-.05-1.22-.12-1.83-.13-.21,0-.41-.02-.61-.08-.46-.12-.92-.24-1.38-.37-.02,0-.05-.02-.09-.03l-.02.08s-.08-.02-.12-.03c0,.3.07.6.14.9.06.29.12.58.22.86.18.47.53.86.91,1.18.08.04.16.08.24.13.49.31.65.82.8,1.35.21.72.6,1.28,1.29,1.59,0,0,0,0,0,0,0,0,0,0,0,0,0,0,.01,0,.02,0,0,0,0,0,0,0,.03.01.05.02.08.03.03.01.07.02.1.03.15.02.3.04.46,0,.34-.06.67-.14.97-.29.4-.18.76-.43,1.13-.68.42-.28.86-.55,1.34-.72.63-.23,1.28-.36,1.95-.36.28,0,.57.03.84.07.33.05.63.23.92.41.11.07.21.14.3.24.15.15.28.32.47.43.03.02.04.05,0,.1-.2-.03-.39.07-.58.11-.26.06-.53.11-.79.17-.1.03-.2.11-.33.05-.45-.22-.92-.24-1.39-.07-.24.08-.48.17-.62.39-.09.14-.21.17-.35.2-.03,0-.08,0-.12,0-.44.13-.89.18-1.33.25-.14.03-.27.02-.4.05-.21.05-.43.1-.65.1h0s-.02,0-.04,0h-.05s0,0,0,0c0,0,0,0,0,0,0,0,0,0,0,0-.02,0-.05,0-.07,0,0,0-.01,0-.02,0,0,0,0,0-.01,0,0,0-.01,0-.02,0h-.01s-.01,0-.02,0c-.02,0-.03,0-.05,0,0,0-.01,0-.02,0h0s-.02,0-.03,0c0,0,0,0,0,0-.02,0-.03,0-.05,0-.02,0-.05.02-.08.02-.03,0-.05,0-.08,0-.06,0-.13,0-.19.02-.15.02-.28.03-.43,0-.02,0-.02-.02-.03-.03-.36,0-.71-.09-1.02-.28-.37-.22-.73-.47-.97-.83-.45-.68-.45-1.64-1.14-2.16,0,0,0-.02-.01-.02-.51-.27-1.02-.56-1.41-.98-.04-.04-.07-.09-.1-.13-.09.16-.21.29-.38.4-.27.19-.6.2-.9.22-.37.04-.74.02-1.11.02-.16,0-.32-.03-.47-.05-.22-.03-.43-.08-.66-.09-.12,0-.23.04-.35.05-.46.06-.89-.04-1.32-.19-.06-.02-.09-.02-.11.02-.03.06.03.08.06.08.26.1.52.19.81.2.4,0,.8,0,1.21,0,.06,0,.11-.01.17,0,.17.05.35.08.54.08.46,0,.93,0,1.4-.01-.06.23-.04.3.13.33.13.03.21.11.27.19.23.3.23.69-.05.92-.14.11-.74.12-.85,0-.02-.02-.01-.04-.02-.07-.04-.18-.08-.36-.19-.52-.06-.09-.06-.18.02-.26.03-.03.06-.06.09-.09.04-.06.16-.1.11-.19-.04-.08-.15-.06-.22-.09-.02-.01-.05,0-.07,0-.23-.02-.45.04-.67-.04-.07-.03-.12.02-.17.08.32.09.57.24.75.53.15.23.25.49.25.76,0,.13-.01.28-.05.4-.05.23-.14.44-.42.51-.16.04-.32.07-.48.11-.4.11-.76,0-1.11-.17-.19-.1-.32-.29-.36-.51-.02-.12-.01-.24-.06-.35.04,0,.06-.03.05-.07-.04-.19.03-.37.09-.55.07-.22.17-.4.4-.48.09-.03.15-.1.24-.15.05-.02.09-.05.09-.1,0-.08-.08-.05-.13-.09-.04-.03-.11,0-.18.02-.42.19-.85.16-1.28,0-.28-.1-.56-.2-.84-.29-.11-.04-.21-.09-.31-.15-.12-.06-.2-.15-.3-.23-.28-.22-.6-.24-.92-.27-.19-.02-.37-.06-.56-.08-.19-.02-.35-.12-.53-.16-.26-.15-.52-.11-.77.02-.1.05-.19.14-.31.14-.35.01-.7.02-1.04.06-.22.02-.44-.05-.67-.03-.37.02-.71-.08-1.06-.18-.1-.03-.1-.06-.1-.14,0-.21.02-.42.03-.62.02-.29.09-.56.2-.81.05-.13.06-.14.21-.12.18.02.34-.07.52-.06.37,0,.74,0,1.11,0,.05,0,.1.01.15,0,.29-.11.6-.09.9-.16.34-.07.66.1.91.28.31.22.65.32.99.43.1.04.23,0,.34,0,.02,0,.05-.02.05-.04,0-.04-.01-.06-.05-.06h-.07c-.3,0-.56-.1-.75-.35-.08-.11-.09-.17,0-.27.16-.17.34-.31.55-.41.32-.16.48-.06.63.2.03.05.03.08.02.14-.03.14-.14.24-.18.37-.02.05-.03.08,0,.13.08.11.2.12.32.13.17.02.37,0,.51.16.05.07.09-.02.13-.05-.11-.15-.28-.19-.44-.24.11-.21.2-.41.19-.65,0-.06.03-.11.04-.15.01-.1.1-.09.16-.12.04-.02.07.06.11.11.04.07.04.13.04.2,0,.08-.02.17,0,.24.13.33.17.66.16,1.01,0,.04-.02.09.01.14.18.32.37.63.64.88.03.02.05.04.09.02.03-.03.02-.06,0-.08-.08-.07-.11-.16-.13-.27-.06-.28-.09-.57-.1-.85-.01-.24-.08-.32-.31-.36-.04,0-.09.01-.08-.05,0-.06.05-.04.09-.05.28-.04.43-.3.38-.51-.06-.31-.17-.62-.28-.93-.05-.12.01-.1.08-.1.12,0,.19.07.27.14.29.3.61.58.95.83.11.08.25.12.33.26-.2-.02-.38-.02-.54.1-.04,0-.05.02-.05.05-.03,0-.05.02-.05.05,0,.04-.02.09.05.1-.05.13-.13.27-.09.41.03.08.06.17.09.25-.07-.22-.08-.45,0-.65.03,0,.05-.02.05-.05.03,0,.05-.02.05-.05.03,0,.05-.02.05-.05.11.02.19-.06.29-.06.26,0,.5.08.74.16.16.05.26.15.35.27.05.06.07.13.1.2h0s0,0,0,0c.07,0,.05-.06.05-.1h0c0-.07,0-.14-.05-.2.11,0,.17.07.26.1.17.06.35.03.52.04.22,0,.28.1.22.31-.01.05-.04.08-.07.12-.08.14-.15.29-.13.47.01.06.03.1.07.12.13.08.34,0,.38-.14.02-.08.07-.15.05-.25-.03-.15.06-.27.18-.34.04-.03.09-.05.14-.07-.02-.04-.04-.08-.06-.12,0-.01.01-.02,0-.03-.33-.41-.68-.82-1.11-1.13,0,0,0,0,0,0-.16-.11-.33-.21-.51-.29-.03-.01-.05-.04-.04-.06,0,0,0,0,0,0v-.08c-.43-.1-.85-.2-1.27-.29-.65-.14-1.3-.26-1.95-.37-.62-.1-1.25-.18-1.87-.23h-.53s-.13.05-.15-.05h-.84c-.08.1-.19.02-.28.05h-.42c-.29.02-.58.08-.87.15-1.01.25-1.69.87-2.01,1.87-.03.04.01.11-.07.12v.5c.07,0,.04.06.05.1.02,0,.05,0,.05.04.05.35.25.61.49.85h0c.16.25.4.43.63.59.61.42,1.26.79,1.95,1.09.46.2.93.39,1.4.57.75.29,1.5.55,2.27.77h0s.02,0,.02,0c0,0,0,0,.01,0,.4.17.83.27,1.25.4.56.17,1.14.32,1.71.47.3.08.6.16.9.22.27.06.55.12.82.17.34.07.68.12,1.01.18.15.03.3.03.45.06.37.07.74.08,1.1.14.17.02.33.02.5.04.31.03.63.04.95.05.94.02,1.87,0,2.81,0,.42,0,.83-.06,1.24-.11.12-.02.26,0,.37-.05.23-.08.47-.09.71-.14.21-.05.43-.07.65-.11.3-.06.59-.12.89-.19.2-.04.41-.09.62-.13.27-.06.53-.11.8-.17.28-.06.56-.12.84-.19.24-.05.48-.11.72-.16.36-.07.71-.16,1.06-.24.2-.04.41-.11.62-.11,0,0,0,0,0,0,0-.04.04-.05.07-.04.03,0,.07,0,.1,0,.02,0,.05-.01.07-.02,0,0,.02,0,.03-.02,0,0,0,0,.01,0,0,0,0,0,.01,0,0,0,0,0,.01,0,0,0,0,0,0,0,0,0,0,0,.01,0,0,0,0,0,0,0,0,0,0,0,0,0,0,0,0,0,0,.01,0,0,0,0,0,0,0,0-.02.02-.03.02,0,0,0,0,0,0-.04.06-.11.04-.17.07,0,0-.01,0-.02.01-.33.09-.67.19-1,.28-.28.08-.56.15-.85.21-.35.08-.7.14-1.05.21-.3.06-.6.12-.89.19-.23.06-.46.09-.69.14-.19.04-.38.09-.57.1-.24.01-.47.08-.7.11-.35.06-.69.12-1.03.2-.12.02-.25.03-.37.05-.24.05-.48.11-.73.13-.24.03-.49.07-.73.11-.33.07-.67.12-1.01.18-.26.04-.53.08-.79.12-.42.06-.84.13-1.26.2-.14.02-.28.02-.42.05-.27.07-.54.1-.81.13-.16.02-.34.03-.5.06-.28.06-.57.09-.86.13-.19.03-.39.06-.6.07-.14.01-.29.01-.43.04-.25.06-.5.06-.75.09-.19.03-.39.03-.57.06-.33.06-.67.08-1,.13-.27.04-.55.08-.82.12-.36.05-.71.14-1.07.23-.47.11-.92.29-1.36.48-.54.24-1,.58-1.42,1.01-.35.37-.62.77-.82,1.23-.06.15-.06.29.03.4.25.31.57.54.92.71.25.12.54.16.81.26.08.03.15.04.23.04,0,0,0,0,0,0,.03,0,.04-.02.04-.04,0,0,0,0,0-.01-.01-.02-.03-.03-.05-.04-.03-.01-.07-.02-.11-.04-.05-.01-.11-.03-.16-.07.05-.03.09-.06.13-.09.02-.02.05-.04.07-.06,0,0,.02-.02.02-.02.04-.04.07-.08.1-.12.06-.08.12-.15.18-.23.03-.03.06-.05.08-.07,0,0,0,0,0,0,.08-.07.17-.12.26-.14.06-.01.11-.04.15-.06,0,0,0,0,0,0,.04-.02.08-.05.12-.09,0,0,.01-.01.02-.02.06-.07.11-.15.14-.25.02-.07.02-.12.1-.16.05-.03.08-.07.11-.11,0-.01.02-.03.03-.04.01-.01.02-.02.03-.03.03-.06.05-.13.06-.21.05.03.09.05.14.08.04.01.09.04.17.09.1.06.19.13.26.22.13.17.29.3.49.38,0,0,.02,0,.02,0,.06.02.13.04.2.05.25.03.5.09.73.18.06.03.13.04.19.06.07.02.15.03.23.04.43.04.84-.05,1.23-.15.04-.01.07-.03.11-.04.04-.02.08-.03.11-.05h0c.05-.03.1-.07.15-.12.01-.01.02-.02.03-.04.02-.02.04-.05.06-.07.03-.05.06-.1.08-.16.01-.03.02-.06.02-.09,0-.03,0-.05,0-.08,0-.02,0-.04-.02-.06-.04-.06-.04-.13-.07-.2-.02-.04-.04-.07-.06-.11-.04-.09-.05-.17,0-.26.02-.06.07-.12.14-.16.1-.09.24-.15.39-.18.03,0,.05-.02.08-.02.16-.02.35-.05.48.14.02.02.04.04.06.06.17.16.37.24.61.24.02,0,.03,0,.04,0,.25,0,.51-.02.76-.03.05-.01.11-.03.16-.02.12,0,.25,0,.38-.03.03,0,.07,0,.1-.01.09-.02.19-.03.29-.03.04,0,.08,0,.12-.01.09-.01.19-.03.27,0,.01,0,.02,0,.03.01.02,0,.03.02.05.03.01.01.02.03.03.05.01.02.03.04.04.07.02.07.11.12.19.14.18.06.35.15.53.2.05.01.11.03.16.04.16,0,.32.07.49.05.05,0,.09,0,.14-.02.04,0,.08-.02.12-.03.03-.01.07-.02.1-.04.1-.06.18-.05.28-.02.07.02.12.03.17.04.03,0,.06.01.09.01.03,0,.06,0,.08,0,.04,0,.08-.01.12-.03.09-.04.17-.1.26-.21.02-.04.05-.07.07-.12.03-.08.06-.14.09-.2,0,0,0-.02.01-.03.07-.11.14-.16.26-.16.02,0,.04,0,.06,0,.05,0,.09,0,.15,0,.04,0,.07,0,.11,0,.05,0,.1-.01.15-.03.18-.08.32-.19.36-.4,0-.01.01-.02.01-.03.02-.06.04-.12.07-.17.03-.05.06-.1.11-.14.03-.03.07-.06.1-.08.02-.01.03-.04.06-.05,0,0,.01,0,.02,0,.07-.04.15-.08.23-.12.1-.04.16-.02.19.03.02.03.04.06.05.11,0,.04,0,.07,0,.1,0,.02,0,.04,0,.06,0,.03-.01.05-.02.08,0,.02,0,.05-.02.07,0,0,0,0,0,.01-.04.09-.1.17-.18.24-.04.04-.07.07-.11.11,0,.02.02.01.03.02.16-.01.29-.05.41-.1.11-.05.22-.08.32-.1.05-.01.11-.02.16-.02h.01c.07,0,.14.01.2.04.08.03.17.07.25.13.01,0,.03.01.04.02.14.1.29.15.46.15.03,0,.06,0,.09,0,.06,0,.11.02.16.04.13.05.26.1.39.14.02,0,.05.01.07.02.24.06.47.1.75.09,0,0,0,0,0,0h.03s.18.1.18.1c0,0-.01.02-.03.05,0,0,0,0,0,0-.04.07-.1.18-.17.24-.01.02-.03.04-.05.04h0s-.08.09-.08.09c-.05.08-.1.16-.15.23-.09.15-.18.3-.26.45-.04.08-.08.16-.12.25-.02.04-.03.07-.05.11-.03.06-.05.13-.07.2-.04.11-.07.22-.08.34v.1s-.07.01-.11.02c-.08.02-.17.04-.25.07-.05.02-.1.03-.14.06-.02.01-.04.02-.07.02-.05,0-.1,0-.15,0-.12.02-.23.04-.35.04-.04,0-.09,0-.13,0h0s-.05,0-.08,0c-.05,0-.1,0-.15,0-.1,0-.19,0-.29.02-.05,0-.09.01-.14.02-.05.01-.1.03-.16.06-.04.02-.1,0-.15,0h-.15c-.27.02-.55.02-.82,0-.02,0-.05,0-.07,0-.17,0-.33-.03-.49-.07-.22-.02-.42,0-.61.09-.06.03-.11.05-.17.09-.08.04-.15.09-.23.13-.05.03-.1.06-.14.08-.14.07-.29.12-.45.15-.11.03-.22.05-.34.06-.13.01-.25.04-.38.05-.03,0-.05.01-.08.02-.12.04-.24.04-.36.05-.11.02-.22.05-.33.07-.11.04-.22.08-.34.08,0,.02-.02.03-.03.04-.03.03-.06.02-.1.01-.02,0-.04,0-.06,0,0,0-.01,0-.02,0-.04,0-.09,0-.13,0-.02,0-.05.02-.07.05,1.48-.02,2.96.05,4.45-.04.27-.02.54-.09.81-.05.02,0,.04,0,.05,0,.09-.09.2-.05.3-.04.12,0,.21-.08.33-.06.17.03.33-.09.5-.05.09-.1.21-.03.32-.06.2-.06.41-.1.61-.14.3-.06.6-.14.89-.25h0s-.05-.03-.07-.05c-.04,0-.08,0-.07-.05,0-.01,0-.03,0-.05,0-.01,0-.03,0-.04-.01-.06-.02-.13.05-.17h0s.01-.05.02-.08c.04-.18.08-.36.07-.54,0-.08,0-.15.02-.21,0-.02.02-.05.02-.07.06-.18.17-.34.3-.5h0s0,0,0,0c.09-.11.19-.2.3-.28,0,0,.01,0,.02-.01.3-.23.64-.38,1.01-.48.03-.01.06,0,.09,0h.22c.18,0,.36,0,.53,0h.65s.02.01.04.03c.01.04-.02.07-.04.1,0,.01,0,.03-.01.04,0,.02,0,.03,0,.04,0,.03.02.05.05.05.05,0,.07-.04.09-.08.11-.2.23-.4.35-.6.13-.22.24-.46.31-.71h0s0,0,0,0c0,0,0,0,0,0,0-.03,0-.07-.02-.08,0,0,0,0-.02,0,0,0-.02,0-.03,0,0,0-.01,0-.01,0,0,.01-.01.02-.02.03,0,0,0,0,0,.02-.03.16-.1.26-.28.31,0,0-.01,0-.02,0-.11.06-.24.08-.36.07,0,0-.01,0-.02,0-.02,0-.04,0-.06-.01-.02,0-.04,0-.06,0,0,0-.01,0-.02,0-.02,0-.04-.02-.06-.03-.07-.03-.14-.07-.16-.16-.02-.13-.01-.27.02-.39,0,0,0-.01,0-.02.02-.07.06-.14.12-.2.3-.29.49-.63.59-1.03.01-.07.06-.16.1-.16.01,0,.03,0,.04,0,.03,0,.06,0,.1,0,.04,0,.07,0,.11,0,.12,0,.24-.01.36,0,.03,0,.07,0,.1,0,.09,0,.09.04.09.1,0,0,0,0,0,0,0,0,0,0,0,.01,0,.01,0,.03,0,.04,0,.03,0,.06-.02.08-.01,0-.03.02-.03.03,0,0,0,.01,0,.02,0,.03,0,.06-.04.06,0,0,0,0,0,0v.05s0,0,0,0c0,0,0,0,0,0,0,0,0,0,0,0,0,0,0,.02,0,.03,0,.01,0,.03,0,.04,0,0,0,0,0,0,0,.01.02.03.04.03t0,0s0-.03,0-.04c0-.03,0-.05.05-.06,0,0,0,0,0,0v-.05s.02-.06.06-.05c.06.01.03.06.04.1-.02.18.07.33.14.48-.11.12-.23.21-.3.36-.1.22-.16.45-.21.69-.04.24.02.44.07.66.04.24.16.45.31.64.07.08.06.16.02.24-.17.43-.26.89-.33,1.35-.03.16-.04.33-.07.49-.05.26-.05.51.04.75.07.17.19.29.32.42.04.04.07.07.03.14-.19.39-.26.82-.27,1.26,0,.29,0,.58.03.87.04.38.15.73.35,1.05.04.06.02.08,0,.13-.16.41-.28.83-.29,1.27-.01.4-.04.82.03,1.22.05.29.1.58.25.84.06.1.16.18.18.27.02.11-.05.22-.08.33-.06.27-.11.54-.16.81-.08.4-.1.79-.13,1.19-.02.16.04.31.05.47,0,.16.08.31.14.46.04.1.07.45.06.56-.05.22-.13.43-.16.66-.04.29-.11.59-.07.88.03.21.03.44.07.66.07.32.11.63.34.88.04.05.02.09.02.14-.02.46.03.92-.04,1.39-.05.36-.07.72-.1,1.08-.03.34-.14.67-.16,1.01-.02.33-.11.64-.06.98.05.38.18.69.41.98.12.15.18.35.14.53-.02.11-.02.21-.04.31,0,.06,0,.11-.01.17-.1.44-.02.84.33,1.15.16.15.34.14.51,0,.28-.23.42-.53.42-.9,0-.34,0-.68,0-1.02,0-.5.03-1-.09-1.5-.08-.33-.16-.65-.22-.98-.05-.25-.1-.49-.12-.74-.05-.57.03-1.15-.05-1.72-.03-.27-.07-.53-.14-.79-.02-.06-.03-.11.02-.16.31-.34.37-.77.4-1.2.02-.33.04-.68-.03-1.02-.06-.26-.11-.51-.23-.75-.07-.14-.18-.28-.3-.42.18-.05.29-.15.37-.29.12-.21.18-.43.2-.66.03-.43,0-.86-.1-1.28-.08-.35-.18-.7-.37-1.01-.09-.15-.11-.24-.02-.38.22-.35.19-.76.24-1.14.03-.2-.02-.4-.04-.6-.03-.28-.05-.55-.11-.83-.07-.31-.16-.63-.34-.91.15-.14.26-.31.33-.5.14-.35.17-.73.21-1.11.01-.18-.03-.35-.04-.53-.03-.42-.14-.79-.35-1.15.15-.13.29-.28.33-.48.03-.16.06-.31.06-.47,0-.32.02-.63-.04-.95-.04-.24-.08-.48-.14-.71-.03-.11-.08-.22-.11-.33-.03-.13.12-.21.18-.32,0-.01.01-.03.02-.04.12-.28.16-.59.19-.89.04-.37.02-.74-.14-1.08-.08-.2-.19-.38-.4-.49.14-.24.2-.52.34-.81.02.16.06.26.12.35t0,0h0s0,0,0,0c.03,0,.04-.03.05-.05h0s0-.05,0-.07c0,0,0,0,0,0,0-.05-.01-.08-.02-.11-.01-.03-.03-.06-.03-.09.07-.02.13-.03.19,0,.05.02.11.03.17.03.02,0,.03,0,.05,0,.06,0,.12,0,.18-.03.11-.03.18-.04.24-.01,0,0,.01.01.02.02.04.03.07.08.1.18.02.08.05.17.07.25.02.05.04.11.06.16.03.06.06.12.1.18.02.03.03.05.05.08.02.03.04.05.06.07.06.07.12.14.18.21.04.05.07.1.1.15,0,.02.02.03.03.05,0,.01,0,.03,0,.04,0,.01,0,.02,0,.04,0,.04.02.09.02.13,0,.08,0,.16,0,.24,0,.12-.14.22-.32.23,0,0-.01,0-.02,0-.1,0-.2,0-.3-.04-.09-.03-.18-.06-.27-.1-.1-.04-.05-.18-.13-.24,0,0-.01,0-.02,0-.02,0-.03.01-.04.03,0,.02,0,.05,0,.07.18.46.39.9.69,1.29,0,0,0,0,0,0,.03,0,.05-.02.05-.05.01-.05-.02-.09-.03-.15.54,0,1.06,0,1.59,0,.09,0,.17.03.22.06.37.18.76.34,1.04.67.19.22.33.46.36.77.03.31.04.62.14.95-.15-.03-.27-.12-.4-.11-.03,0-.06,0-.08.01,0,0,0,0,0,0,0,0-.02.02-.02.04.33.18.7.23,1.05.34.42.12.85.2,1.28.25.41.05.83.1,1.25.15.21.02.42.02.62.04.39.04.79.05,1.19.05,1.35,0,2.71.04,4.06-.03.52-.03,1.04-.09,1.56-.06.02,0,.03,0,.05,0,.34-.09.69-.06,1.03-.09.23-.03.46-.06.69-.07.16,0,.32,0,.47-.04.31-.09.64-.09.96-.14.27-.04.55-.08.82-.12.25-.04.51-.08.76-.14.26-.06.52-.14.79-.18.35-.06.67-.17,1.01-.27.33-.11.68-.2,1-.34.22-.1.42-.24.6-.39.38-.31.45-.53.22-.92-.13-.24-.29-.47-.46-.69-.39-.49-.85-.89-1.4-1.18-.41-.22-.84-.39-1.29-.53-.43-.13-.87-.24-1.31-.31-.39-.06-.78-.15-1.17-.17-.15,0-.31,0-.45-.05-.22-.06-.44-.06-.66-.08-.23-.02-.47-.04-.69-.08-.33-.05-.67-.08-1-.13-.31-.04-.61-.1-.92-.12-.13,0-.27-.01-.4-.05-.27-.08-.54-.09-.81-.13-.16-.02-.34-.03-.49-.07-.35-.08-.71-.12-1.06-.18-.37-.06-.75-.13-1.12-.17-.12-.02-.25-.03-.37-.05-.24-.05-.48-.11-.73-.13-.24-.03-.48-.08-.72-.11-.28-.04-.56-.09-.83-.15-.12-.02-.25-.02-.37-.06-.24-.07-.49-.09-.73-.14-.23-.04-.46-.1-.69-.13-.19-.03-.38-.09-.57-.11-.23-.02-.45-.07-.67-.12-.36-.08-.73-.16-1.09-.22-.36-.07-.72-.13-1.07-.22-.66-.17-1.32-.31-1.96-.53-.02,0-.04-.02-.05-.03-.03-.02-.05-.03-.09-.02h0s0,0,0,0h0s0,0-.01,0c-.02-.01-.05-.02-.07-.04-.03-.01-.06-.03-.1-.05.07,0,.12-.03.15,0,.01,0,.02.02.03.04.02,0,.06,0,.08,0,0,0,0,0,.01,0,.02,0,.04.01.05.05.08.01.16-.01.24.02.23.08.48.12.72.17.43.08.85.18,1.28.27.43.1.86.19,1.29.29.26.06.53.11.8.16.29.06.58.14.86.19.21.04.42.06.63.11.3.08.6.14.91.18.25.03.5.08.75.12.3.05.61.12.9.12.98,0,1.96.05,2.95-.03.57-.05,1.14-.04,1.71-.1.29-.03.58-.07.87-.1.28-.03.55-.08.82-.11.12-.01.25-.02.37-.06.28-.08.58-.11.86-.18.34-.08.68-.15,1.01-.24.38-.11.78-.2,1.16-.31.3-.09.61-.16.9-.26l.11-.03h0s.05,0,.07,0c.4-.13.8-.26,1.2-.39.75-.23,1.48-.49,2.21-.76.42-.15.83-.32,1.22-.51.56-.27,1.12-.53,1.64-.88.34-.23.69-.45.94-.79h0c.18-.13.28-.32.38-.52.06-.12.11-.25.16-.38v-.74s-.03,0-.04-.02M139.6,85.27c-.36.34-.78.47-1.25.5-.07,0-.14-.02-.2,0-.25.09-.5.07-.75,0-.48-.11-.81-.38-.93-.87-.05-.19.03-.37.1-.55.02-.04.05-.08.12-.06.26.07.53.09.8.08.11,0,.24-.03.34,0,.28.1.57.03.85.06.29.04.59.1.89.06.02,0,.03,0,.05,0,.25.1.53,0,.77.12-.26.21-.55.41-.8.64M130.63,84.12s.01-.05.05-.05c0,.03-.02.05-.05.05M124.53,83.1c.28-.08.58-.12.73-.43.07-.15.18-.18.32-.18.24,0,.48,0,.72,0,.18,0,.37.03.51-.14.04-.04.09-.01.14-.01.19-.02.37.04.55.03.21,0,.41.07.62.06.1,0,.22.04.32.03.07,0,.09.05.14.07-.14.1-.3.13-.44.2-.29.14-.61.23-.92.29-.3.05-.61.12-.92.13-.15,0-.3.01-.45.05-.38.1-.76.14-1.15.16-.35.02-.71,0-1.06.01v-.05c.28-.11.58-.14.88-.21M122.41,85.68s0,0,0-.01c0,0,0,0,0,0,0,0,0,0,0,0M122.69,85.82s.01.01.02.02c.01.01.03.03.04.04-.02-.02-.04-.03-.06-.05M128.46,88.52s.05.02.07.02h0s-.05-.02-.08-.02M143.65,89.86c.02-.11.04-.15.1-.16,0,.08.06.05.1.05-.04.12-.13,0-.2.11M148.72,87.31s0,.02-.02.04c-.72,1.02-1.97.54-2.85-.09-.73-.52-.69-.24-1.32-.44-.19-.06-.31-.16-.45-.29-.11-.1-.14-.21-.22-.29-.04-.03-.14.01-.18-.04-.06-.08-.13-.08-.17-.18-.28-.83,2.76-.34,3.16-.17.2.08,2.61,1.01,2.05,1.47M143.37,90.27s.06-.06.12-.07c.43-.06.86-.13,1.28-.24.17-.04.35-.07.53-.1.12-.03.24,0,.32.11.19.28.39.56.5.89.09.26,0,.51-.12.73-.13.2-.32.35-.51.5-.2.16-.55.25-.91.25-.35-.03-.7-.16-.96-.55-.15-.22-.3-.43-.38-.69-.05-.16.03-.71.13-.84M147.31,92.31c-.06.06-.1.14-.16.21-.25.26-.52.49-.86.62-.2.08-.37.23-.55.34-.23.15-.49.23-.77.25-.63.04-1.19-.18-1.74-.45-.29-.14-.59-.27-.85-.48-.24-.2-.46-.41-.63-.69-.29-.49-.59-.96-1-1.42.76-.14,1.49-.27,2.25-.4-.16.18-.13.39-.15.58-.04.28-.03.57.04.85.04.16.13.3.23.42.17.2.35.4.62.45.07.02.16.05.2.11.11.14.28.16.43.18.18.03.36.03.54.06.16.02.28-.05.42-.14.34-.22.63-.49.87-.82.08-.12.12-.25.14-.37.06-.37.08-.74.06-1.12,0-.05-.03-.07-.05-.11-.11-.24-.27-.43-.49-.59.07-.04.12-.1.2-.08.08.02.14-.05.2-.05.09.02.15-.05.23-.06.27-.02.53-.1.79-.17.11-.03.15-.01.2.08.17.27.29.55.35.88.15.75-.09,1.36-.54,1.92M159.9,93.98c.05,0,.08.05.11.11.04.12.11.24.18.35.2.26.36.38.67.23.22-.1.38.02.55.07.09.03.19.05.26.03.17-.07.35-.01.51-.09.26-.13.59-.14.78-.38.09-.11.17-.12.28-.12.29,0,.58.04.87.1.13.02.26,0,.39,0h.94s.13.05.15-.05c.14.01.19-.11.26-.19.17-.18.35-.26.58-.16.03.1.14.08.19.09.36.09.43.33.28.6-.16.3-.09.61.2.79.17.11.37.18.58.21.26.04.51.09.77.1.2,0,.4-.04.57-.13.21-.11.44-.13.67-.17.23-.05.43-.12.6-.29.15-.15.29-.3.47-.43.06-.04.13-.09.21-.08.08.01.09.09.11.16.01.05.08.08.12.13.07.09.2.12.18.3-.01.09.13.19.25.25.1.05.21.09.31.15.09.05.18.1.24.19.12.18.29.33.44.5-.26.12-.54.17-.8.25-.32.1-.64.15-.96.23-.2.05-.41.07-.62.12-.26.06-.52.08-.78.14-.15.03-.31.04-.47.06-.2.04-.41.06-.61.08-.31.03-.63.1-.95.06-.13.03-.29.02-.29.02h-.03s0,0,.02,0c-.17.09-.35.08-.53.07-.18,0-.34.07-.52.06-.16,0-.34-.04-.5.05-.01.01-.04,0-.05,0-.84.01-1.68.08-2.52.05-.07,0-.14-.02-.2-.04-.12-.04-.24-.07-.37-.07-.22,0-.45-.07-.67-.12-.17-.04-.34-.01-.52-.06-.16-.05-.33-.09-.47-.18-.2-.13-.42-.22-.64-.33-.16-.09-.35-.08-.49-.03-.41.15-.83.09-1.25.08-.26,0-.54-.02-.79-.09-.29-.07-.58-.03-.87-.05-.13,0-.24-.04-.36-.09-.05-.02-.1-.06-.17-.06-.17,0-.23-.06-.23-.22,0-.16-.07-.29-.13-.42-.18-.4-.39-.77-.61-1.14v-.02l-.05-.06s-.04-.02-.05-.04c-.11-.1-.2-.3-.2-.3l.18-.11.17.02h.08c.34.05.65-.1.96-.2.11-.03.21-.09.33-.08.17.01.3-.05.44-.14.03-.02.05-.04.08-.06.27-.18.54-.13.82,0,.16.07.32.15.52.09-.17-.12-.3-.26-.37-.47-.05-.13.03-.21.03-.32,0-.08.11-.06.14-.04.27.14.57.23.65.59.07.33.27.46.6.44.13,0,.24.06.37.06M154.37,90.12c.18-.26.23-.31.51-.21.22.08.46.08.68.14.22.06.44.1.66.14.13.02.26.04.39.06.07,0,.11.05.13.1.08.31.16.61.05.93-.06.17-.17.3-.26.44-.11.15-.22.32-.38.43-.24.17-.5.21-.76.19-.38.02-.68-.09-.95-.33-.13-.12-.28-.23-.37-.39-.17-.28-.21-.57-.06-.87.1-.22.22-.43.36-.62M152.19,90.52c.07-.27.12-.54.25-.8.04-.07.1-.11.12-.2.03-.11.16-.09.24-.07.43.13.87.21,1.31.29.04,0,.06.01.07.05,0,.03-.02.03-.04.04-.17.1-.26.28-.38.43-.09.12-.09.3-.11.47-.03.24.04.48.06.72.01.1.02.21.06.32.11.3.3.54.55.73.07.05.14.11.2.16.37.35.82.31,1.24.18.39-.12.79-.29,1.09-.6.24-.25.38-.54.36-.89,0-.18,0-.36,0-.55,0-.16-.06-.31-.09-.49.37.07.73.13,1.09.2.35.06.71.12,1.07.18-.02.14-.14.22-.22.3-.33.4-.58.86-.86,1.29-.17.25-.38.48-.64.62-.51.28-1.04.56-1.6.73-.15.04-.29.09-.44.08-.1-.01-.2.06-.28.04-.16-.03-.31-.03-.47-.06-.31-.06-.54-.26-.79-.41-.05-.03-.1-.08-.16-.09-.42-.14-.71-.45-.99-.76-.29-.33-.52-.71-.62-1.14-.06-.24-.08-.51-.02-.78M171.65,82.35c.11,0,.22-.04.32-.04.21,0,.41-.07.62-.07.18,0,.36-.06.55-.04.05,0,.1-.03.14.01.14.17.33.13.52.13.24,0,.48,0,.72,0,.14,0,.25.03.32.18.15.3.45.35.73.42.3.07.6.1.88.2v.05c-.35,0-.71.01-1.06,0-.39-.01-.77-.05-1.15-.14-.14-.04-.3-.04-.45-.05-.31,0-.62-.07-.92-.12-.31-.05-.63-.14-.92-.27-.14-.06-.29-.09-.44-.19.04-.03.07-.08.14-.07M160.5,84.53s.03,0,.05,0c.3.03.6-.03.89-.07.28-.03.57.03.85-.08.1-.04.23,0,.34,0,.28,0,.54-.02.8-.09.06-.02.1.02.12.06.08.18.15.36.11.54-.11.5-.44.76-.92.88-.25.06-.5.09-.75,0-.06-.02-.13,0-.2,0-.47-.02-.9-.15-1.26-.48-.25-.23-.54-.43-.81-.63.24-.12.52-.03.77-.13M151.18,87.4s-.01-.02-.02-.04c-.55-.46,1.94-1.43,2.18-1.52.41-.16,3.22-.63,3.03.23-.03.13-.11.11-.19.19-.05.05-.2,0-.23.04-.07.06-.07.22-.14.28-.18.16-.33.28-.58.33-.14.03-.29-.03-.43,0-.3.05-.53.25-.78.43-.88.63-2.12,1.07-2.84.07M156.3,89.8c-.3-.05-.61-.11-.91-.19-.02,0-.05,0-.07-.01-.05-.02-.15.06-.15-.05,0-.09.1-.05.15-.07.21-.07.42,0,.62.05.16.04.28.13.4.23.06,0,.06.06.13.1-.09,0-.15.05-.18-.05M177.55,85.49c-.35.11-.69.21-1.06.19-.23,0-.46.06-.67.04-.35-.03-.69-.03-1.04-.04-.12,0-.21-.09-.31-.14-.25-.12-.51-.16-.77,0-.18.04-.34.14-.52.16-.19.03-.37.07-.56.09-.32.03-.64.06-.92.28-.1.08-.18.17-.3.23-.1.05-.2.11-.31.15-.28.1-.56.2-.84.3-.42.16-.85.19-1.28,0-.07-.03-.14-.05-.18-.02-.04.03-.13.01-.12.09,0,.05.05.08.09.1.08.05.15.11.24.15.23.08.33.26.41.48.06.18.13.36.09.55,0,.04.01.06.05.07-.05.12-.04.24-.06.36-.03.22-.16.41-.35.52-.34.18-.7.28-1.1.18-.16-.04-.32-.07-.48-.1-.28-.07-.38-.28-.43-.51-.03-.12-.05-.27-.05-.4,0-.27.1-.53.24-.76.17-.29.43-.45.74-.54-.05-.06-.1-.11-.17-.08-.22.09-.45.03-.67.05-.02,0-.05-.01-.07,0-.07.03-.18.02-.22.1-.05.09.07.13.11.19.03.03.06.06.09.09.08.08.08.17.02.26-.1.16-.14.34-.18.52,0,.02,0,.05-.02.07-.12.12-.72.12-.85,0-.28-.22-.29-.62-.06-.91.06-.08.13-.16.27-.19.18-.03.19-.1.13-.33.47,0,.94,0,1.4,0,.19,0,.36-.03.54-.09.06-.02.11,0,.17,0,.4,0,.81,0,1.21,0,.28-.01.55-.11.81-.21.02,0,.09-.02.06-.08-.02-.04-.05-.04-.11-.02-.43.16-.86.26-1.32.2-.12-.01-.23-.05-.35-.05-.22,0-.44.06-.66.09-.16.02-.31.06-.47.06-.37,0-.74.02-1.11,0-.31-.02-.63-.03-.9-.21-.14-.09-.26-.2-.35-.33-.03.03-.05.07-.07.09-.39.43-.9.72-1.41.98,0,0,0,.02-.01.02-.68.52-.68,1.48-1.14,2.16-.24.36-.6.61-.97.83-.32.18-.66.29-1.02.28-.01,0-.02.02-.03.03-.14.04-.28.03-.43,0-.06,0-.12-.02-.19-.02-.03,0-.05,0-.08,0-.03,0-.05-.02-.08-.02-.02,0-.03,0-.05,0,0,0,0,0,0,0,0,0-.02,0-.03,0,0,0,0,0,0,0,0,0-.01,0-.02,0-.02,0-.03,0-.05,0,0,0-.01,0-.02,0h-.01s-.01,0-.02,0c0,0,0,0,0,0,0,0-.01,0-.02,0-.02,0-.05,0-.07,0,0,0,0,0,0,0,0,0,0,0,0,0,0,0,0,0,0,0h-.05s-.02,0-.04,0h0c-.22,0-.44-.05-.65-.1-.13-.03-.27-.02-.4-.05-.44-.08-.89-.13-1.33-.25-.04,0-.09,0-.12,0-.14-.04-.26-.06-.35-.2-.14-.22-.38-.31-.62-.39-.47-.16-.94-.14-1.39.07-.13.06-.23-.02-.33-.05-.26-.06-.53-.11-.79-.17-.2-.04-.38-.14-.58-.11-.03-.04-.02-.08,0-.1.19-.11.32-.27.47-.43.09-.09.19-.17.3-.24.29-.18.59-.36.92-.41.27-.04.56-.07.84-.07.68,0,1.33.13,1.95.36.48.17.91.44,1.34.72.36.25.73.5,1.13.68.31.15.63.23.97.29.16.03.31.01.46,0,.03-.01.07-.02.1-.03.03,0,.05-.02.08-.03,0,0,0,0,0,0,0,0,.01,0,.02,0,0,0,0,0,0,0,0,0,0,0,0,0,.69-.31,1.08-.88,1.29-1.59.16-.53.31-1.04.8-1.35.08-.05.16-.09.24-.13.38-.33.73-.71.91-1.18.11-.27.16-.57.22-.86.07-.29.13-.58.13-.88-.02,0-.04,0-.05.01l-.03-.1c.51-.14,3.04-.83,3.16-.83h0v.1s-.04,0-.08.02c0,.02-.01.04-.04.05-.18.08-.35.17-.51.29,0,0,0,0,0,0-.43.3-.78.72-1.11,1.13,0,.01.01.02,0,.03-.02.04-.04.08-.06.12.02,0,.04.02.06.03.11.07.21.19.18.34-.02.1.04.17.06.25.04.15.25.22.38.14.04-.02.06-.06.07-.12.01-.18-.05-.33-.14-.47-.02-.04-.06-.07-.07-.12-.06-.21,0-.3.22-.31.17-.01.35.02.52-.05.09-.03.15-.11.26-.1-.05.06-.05.13-.05.2h0s-.03.1.05.1h0s0,0,0,0c.03-.07.05-.14.1-.21.09-.12.19-.22.35-.27.24-.08.48-.16.74-.17.11,0,.19.08.3.05,0,.03.02.05.05.05,0,.03.02.05.05.05,0,.03.02.05.05.05.08.21.08.44,0,.65.03-.08.06-.16.09-.25.04-.13-.04-.28-.1-.41.07,0,.04-.06.05-.1,0-.03-.02-.05-.05-.05,0-.03-.02-.05-.05-.05-.16-.11-.34-.11-.54-.09.08-.14.22-.18.33-.26.34-.25.65-.54.94-.84.07-.08.15-.15.26-.14.07,0,.12-.02.08.1-.1.31-.2.62-.27.93-.04.21.11.47.39.51.04,0,.09-.02.09.05,0,.06-.05.04-.08.05-.23.05-.3.13-.31.37-.01.29-.04.57-.09.85-.02.11-.05.2-.13.27-.03.03-.03.06,0,.08.03.03.06,0,.09-.02.27-.25.45-.57.63-.88.03-.05,0-.1,0-.14-.02-.35.02-.69.15-1.01.02-.07,0-.16,0-.24,0-.07,0-.14.04-.2.03-.05.07-.13.11-.11.05.03.14.01.16.12,0,.04.04.09.04.15,0,.24.08.44.19.65-.16.05-.33.1-.44.25.04.03.08.12.13.05.13-.17.33-.15.5-.17.12-.02.24-.03.32-.14.03-.05.03-.07,0-.13-.04-.13-.15-.23-.19-.37-.02-.07-.01-.09.02-.14.14-.26.3-.37.62-.21.21.1.4.23.55.4.09.1.08.16,0,.27-.19.25-.44.35-.75.36h-.07s-.06.02-.05.06c0,.03.02.04.05.04.12,0,.24.03.34,0,.34-.12.68-.23.99-.45.25-.19.57-.36.91-.29.3.06.61.04.9.15.05.01.1,0,.15,0,.37,0,.74,0,1.11,0,.18,0,.34.08.52.06.15-.02.15-.01.21.11.11.26.19.52.21.81.01.21.04.41.04.62,0,.08,0,.11-.1.14M167.96,84.21s-.01.02-.02.03c-.02.01-.03,0-.02-.02,0-.01.02-.02.03-.02h.01ZM169.44,83.99s.06.02.05.05c-.03,0-.05-.02-.05-.05"/><path class="cls-2" d="M130.9,85.43s-.08-.06-.11-.09c.03.03.07.06.11.09"/><path class="cls-2" d="M130.42,84.71c.05.21.15.38.28.53-.12-.14-.21-.3-.27-.5,0-.01,0-.02,0-.03"/><path class="cls-2" d="M169.43,85.17c.13-.15.23-.33.27-.54,0,.01,0,.02,0,.03-.06.2-.15.36-.27.51"/><path class="cls-2" d="M168.83,85.62c.08-.01.14-.07.19-.1.03-.02.05-.04.07-.05-.07.05-.15.09-.23.13-.01,0-.02.01-.03.02"/><path class="cls-2" d="M135.15,85.03s-.02-.06-.03-.09c0,.02.01.05.02.07,0,0,0,.02,0,.02"/><path class="cls-2" d="M135.73,86.34s-.01-.02-.02-.03c0,0,0,0,0,0,0,0,0,.02.02.02,0,0,0,0,0,0"/><path class="cls-2" d="M167.87,85.01c0,.06.02.12.04.17-.02-.05-.03-.11-.04-.17"/><polyline class="cls-2" points="134.87 83.85 134.86 83.85 134.86 83.86 134.87 83.85"/><path class="cls-2" d="M130.93,85.32s-.07-.07-.11-.1c.03.04.07.07.11.1"/><path class="cls-2" d="M131.05,85.54s.05.04.07.05c.05.03.11.08.19.09-.01,0-.02-.01-.03-.02-.08-.04-.16-.08-.23-.13"/><polyline class="cls-2" points="165.34 83.85 165.33 83.85 165.34 83.86 165.34 83.85"/><path class="cls-2" d="M131.77,85.64s-.02.03-.03.05c0-.02.02-.04.03-.05"/><path class="cls-2" d="M132.22,85.24s.03-.11.04-.17c0,.06-.02.12-.04.17"/><path class="cls-2" d="M167.73,84.87c-.01.13,0,.24.06.35-.03-.08-.05-.17-.06-.27,0-.03,0-.06,0-.08"/><path class="cls-2" d="M164.47,86.34s0,0,0,0c0,0,0-.02.02-.02,0,0,0,0,0,0,0,0-.01.02-.02.03"/><path class="cls-2" d="M131.81,85.89s-.02-.01-.03-.02c0,0,.02.01.03.02"/><path class="cls-2" d="M131.73,85.76s.01.02.02.04c0-.01-.02-.02-.02-.04,0,0,0,0,0,0"/><path class="cls-2" d="M132.12,85.41s.06-.08.08-.12c-.02.05-.05.08-.08.12"/><path class="cls-2" d="M132.23,84.76c.02.07.03.15.03.22,0-.01,0-.02,0-.04,0-.07-.02-.12-.04-.18"/><path class="cls-2" d="M132.34,85.28c.05-.11.07-.23.06-.36,0,.03,0,.06,0,.08,0,.09-.03.19-.06.27"/><path class="cls-2" d="M168.39,85.62s-.02-.04-.03-.05c.01.01.02.03.03.05"/><path class="cls-2" d="M168.25,85.67s0,.04,0,.08c.02-.04.02-.06,0-.08"/><path class="cls-2" d="M130.65,84.96s.04.08.06.11c-.02-.04-.04-.07-.06-.11"/><path class="cls-2" d="M168.02,85.35s-.06-.07-.08-.12c.02.04.05.08.08.12"/><path class="cls-2" d="M167.86,84.93c0-.07,0-.15.03-.22-.02.06-.04.12-.03.18,0,.01,0,.02,0,.04"/><path class="cls-2" d="M131.89,85.81s-.01-.06,0-.08c-.02.02-.02.04,0,.08"/><path class="cls-2" d="M131.93,85.93s0-.01,0-.02c0,0,0,.01,0,.01,0,0,0,0,.01,0"/><path class="cls-2" d="M165.06,85.01s.01-.05.02-.07c0,.03-.02.06-.02.09,0,0,0-.02,0-.02"/><path class="cls-2" d="M169.74,84.35s0,0,0-.01c0,.01,0,.02,0,.03,0,0,0-.01,0-.02"/><path class="cls-2" d="M152.51,95.07s.01.02.02.03c.24.31.54.53.84.75-.12-.09-.23-.17-.34-.26-.2-.16-.36-.33-.52-.52"/><path class="cls-2" d="M169.34,85.26s-.07.06-.11.09c.04-.03.07-.06.11-.09"/><path class="cls-2" d="M153.48,95.93s.02.02.03.02c.44.33.96.52,1.45.75-.34-.16-.69-.32-1.03-.5-.16-.08-.3-.18-.45-.28"/><path class="cls-2" d="M152.2,94.67c-.04-.06-.08-.12-.15-.15.07.05.13.12.18.19,0-.01-.02-.03-.03-.04"/><path class="cls-2" d="M169.61,84.01c.05.07.09.14.11.21-.02-.08-.05-.14-.11-.21"/><path class="cls-2" d="M168.68,85.58s.02,0,.03.01c0-.01,0-.02,0-.03,0,0-.02,0-.03.02"/><path class="cls-2" d="M169.42,85s.04-.08.06-.11c-.02.04-.04.08-.06.11"/><path class="cls-2" d="M169.31,85.14s-.07.07-.11.1c.04-.03.07-.07.11-.1"/><path class="cls-2" d="M136.78,97.5s.01,0,.02,0c.02,0,.04,0,.06,0,.04,0,.07.01.1-.01,0,0,.02-.02.02-.04h0c-.2,0-.41.02-.61,0-.09-.01-.19-.02-.28-.02-.08,0-.17,0-.25,0-.28,0-.56,0-.84-.02-.27-.03-.54.01-.79-.05-.02,0-.04,0-.06,0-.11,0-.21-.01-.32-.02-.11,0-.22,0-.33-.02-.14,0-.28-.01-.43-.04-.02,0-.03,0-.05,0h-.09s-.21.02-.35-.04c-.05,0-.1,0-.15,0-.2-.04-.4-.06-.6-.09h0c-.2-.01-.4-.05-.6-.07-.03,0-.07-.01-.1-.02-.04,0-.08,0-.12-.01-.15-.02-.29-.05-.44-.07-.04,0-.08-.01-.13-.02-.22-.05-.45-.07-.67-.11-.18-.04-.36-.08-.54-.11-.12-.02-.25-.05-.37-.07-.04,0-.07-.02-.11-.03-.08-.02-.17-.03-.25-.05-.09-.02-.18-.05-.27-.08-.15-.04-.3-.08-.45-.1,0,0-.01,0-.02,0,0,0,0,0,0,0,0,0,0,0,0,0,0,.02-.01.03-.04.04,0,0,0,0,0,0,.1.1.24.11.37.15.55.12,1.09.27,1.66.36.32.05.64.12.96.18.38.07.76.09,1.15.15.3.04.6.07.9.09.41.03.81.06,1.22.11.24.02.48.01.72.04.4.05.81,0,1.21.06.23.03.48,0,.71,0,.02-.04.04-.05.07-.05.04,0,.09,0,.13,0"/><path class="cls-2" d="M136.78,97.5s-.09,0-.13,0c.04,0,.09.01.13,0"/><path class="cls-2" d="M136.86,97.5s.07.01.1-.01c-.03.02-.06.02-.1.01"/><path class="cls-2" d="M127.73,96.37s-.01.04-.04.04c.03,0,.04-.02.04-.04"/><path class="cls-2" d="M148,94.53s0,0,0,0c-.07.03-.11.09-.15.15-.03.04-.06.07-.09.11,0,.01-.02.02-.02.04-.01.02-.03.03-.04.05-.23.29-.48.55-.76.79-.33.28-.7.49-1.08.67-.02.01-.05.02-.08.04-.25.12-.51.23-.77.34-.14.06-.21.08-.24.04-.03,0-.03-.05-.03-.13,0-.03,0-.07,0-.1-.05.06-.06.12-.05.16,0,.01,0,.03,0,.04.01.03.04.06.08.09.04,0,.07,0,.07.05h0c.33-.09.64-.2.95-.35.81-.38,1.52-.91,2.07-1.62.07-.1.2-.17.2-.31h0s-.04-.03-.05-.05"/><path class="cls-2" d="M144.74,96.51h0c-.08.04-.07.1-.05.16,0-.05,0-.1.05-.16"/><path class="cls-2" d="M148.05,94.57s-.05-.02-.05-.05c0,.02.01.04.05.05"/><path class="cls-2" d="M144.69,96.72s0,.03,0,.05c0,.05.03.05.07.05-.03-.03-.06-.06-.08-.09"/><path class="cls-2" d="M153.26,95.85s0-.02-.06-.06c-.06-.04-.9-.86-.9-.86,0,0-.16-.19-.27-.36,0,0,0,0-.02.01h0s-.01.06,0,.07c.14.18.28.37.43.54.31.34.65.65,1.03.89.44.29.89.53,1.39.68,0-.02,0-.03.02-.04-.22-.07-.44-.15-.59-.24-.35-.21-1-.61-1.03-.64"/><path class="cls-2" d="M153.51,95.96s-.02-.02-.03-.02c-.04-.03-.07-.06-.11-.08-.3-.22-.61-.44-.84-.75,0,0-.01-.02-.02-.03-.01-.01-.03-.03-.04-.04-.08-.1-.16-.21-.24-.32-.06-.07-.11-.14-.18-.19,0,.03-.02.05-.05.05,0,0,.01,0,.02-.01.11.17.27.36.27.36,0,0,.84.82.9.86.06.04.02.04.06.06.04.02.68.42,1.03.64.15.09.38.17.59.24.02-.02.05,0,.08-.01-.49-.24-1.01-.42-1.45-.75"/><path class="cls-2" d="M151.35,93.19s0,0,.01,0h0c-.09-.25-.18-.5-.28-.75,0-.02-.02-.05-.02-.07-.07-.19-.15-.38-.23-.56,0,0,0,0,0,0,0,.01,0,.03,0,.04,0,0,0,0,0,0,0,.02,0,.04-.05.05,0,0,0,0,0,0,.1.37.24.72.4,1.07.05.11.04.24.15.32,0-.02,0-.05,0-.07,0-.01.02-.02.04-.02"/><path class="cls-2" d="M151.31,93.21s.02-.02.04-.02c-.02,0-.03,0-.04.02"/><polyline class="cls-2" points="150.77 91.89 150.77 91.89 150.77 91.89 150.77 91.89"/><path class="cls-2" d="M149.23,92.04s0,0,0,0h0s0,0,0,0c-.03,0-.04-.01-.04-.03,0,0,0,0,0,0,0-.01,0-.02,0-.04,0,0,0,0,0-.02,0,0,0,0,0,0-.06.13-.11.27-.17.4-.04.08-.07.17-.1.26-.06.16-.12.32-.17.48,0,0,0,0,.01,0,0,0,.01,0,.02,0,.03.02.02.05.02.08,0,0,0,0,0,0,.15-.21.21-.45.29-.68.05-.15.16-.29.15-.46Z"/><polyline class="cls-2" points="149.19 92.01 149.19 92.01 149.19 92.01"/><path class="cls-2" d="M149.19,91.97s0-.02,0-.03c0,0,0,0,0,0,0,0,0,0,0,0,0,0,0,0,0,.01"/><path class="cls-2" d="M148.75,93.09s.01,0,.02,0c0,0,0,0-.02,0"/><polyline class="cls-2" points="149.23 92.04 149.23 92.04 149.23 92.04 149.23 92.04"/><polyline class="cls-2" points="148.79 93.18 148.79 93.18 148.79 93.17 148.79 93.18"/><path class="cls-2" d="M149.23,92s0,.03,0,.04h0c.08,0,.05-.06.05-.1,0,0,0,0,0,0-.04,0-.05.03-.05.06"/><path class="cls-2" d="M149.23,92s0-.05.05-.06c-.04,0-.05.03-.05.06"/><path class="cls-2" d="M143.62,91.79c.26.38.61.51.96.55.37,0,.71-.09.91-.25.19-.15.38-.3.51-.5.13-.22.21-.47.12-.73-.11-.33-.31-.61-.5-.89-.08-.12-.2-.14-.32-.11-.17.04-.36.06-.53.1-.42.1-.85.18-1.28.24-.05.01-.09.03-.12.07-.1.13-.18.68-.13.84.08.26.23.47.38.69"/><path class="cls-2" d="M154.07,91.61c.09.16.24.27.37.39.27.24.57.36.95.33.26.02.52-.02.76-.19.17-.11.27-.28.38-.43.09-.14.2-.27.26-.44.1-.32.02-.62-.05-.93-.01-.05-.06-.09-.13-.1-.13-.02-.26-.03-.39-.06-.22-.04-.44-.08-.66-.14-.23-.06-.46-.06-.68-.14-.28-.1-.33-.05-.51.21-.14.19-.26.4-.36.62-.15.31-.1.59.06.87"/><path class="cls-2" d="M155.95,89.52c-.21-.05-.42-.11-.62-.05-.05.02-.16-.02-.15.07,0,.11.1.04.15.05.02,0,.05,0,.07.01.3.08.6.13.91.19.03,0,.05-.02.05-.05-.12-.09-.24-.19-.4-.23"/><path class="cls-2" d="M143.75,89.7c-.06.01-.08.05-.1.16.07-.11.16.01.2-.11-.04,0-.09.03-.1-.05"/><path class="cls-2" d="M156.3,89.8c.03.1.09.04.18.05-.07-.04-.07-.1-.13-.1,0,.04-.02.05-.05.05"/><path class="cls-2" d="M148.99,88.81s.02,0,.03-.01c0,0,0,0,0-.01,0,0,0,0,0-.01,0,0,0,0-.01,0,0,0,0,0,0,0,0,0,0,0-.01,0v.05Z"/><path class="cls-2" d="M149.02,88.79s0,0,0-.01c0,0,0,0,0,.01,0,0,0,0,0,0"/><path class="cls-2" d="M149.01,88.76s0,0,.01,0c0,0,0,0-.01,0"/><path class="cls-2" d="M149,88.76s0,0-.01,0h0s0,0,.01,0"/><path class="cls-2" d="M132.18,82.96c.13.03.41.11.75.19.18.05.36.09.54.14.08.02.15.04.23.06.65.17,1.3.34,1.54.42h0c-.51-.15-3.04-.85-3.16-.85h0v.02s.07.01.1.02h0Z"/><path class="cls-2" d="M132.09,83.02s0-.05.02-.06l.24.06s0,0,0,0h0s2.57.68,2.57.68c0,0,0,0,0,.01,0,0,0,0,0,0,0,0,0,0,0,0,0,0,0,0,0,0l.15.04s0,.05,0,.07c.04.01.08.02.12.03l.02-.08c-.24-.08-.89-.25-1.54-.42-.08-.02-.15-.04-.23-.06-.18-.05-.36-.09-.54-.14-.34-.09-.62-.16-.75-.19h0s-.07-.01-.1-.02v.08s0,0,.01,0"/><path class="cls-2" d="M134.94,83.7s0,0,0,0c0,0,0,0,0,0,0,0,0,0,0,0,0,0,0,0,0-.01l-2.57-.68h0s-.24-.06-.24-.06c-.02.02-.02.04-.02.06.15.02,1.82.47,3.01.8,0-.03,0-.05,0-.07l-.15-.04Z"/><path class="cls-2" d="M165.26,83.7s0,0,0,0c0,0,0,0,0,0,0,0,0,0,0,0,0,0,0,0,0-.01l2.57-.68h0s.24-.06.24-.06c.02.02.02.05.02.08.04,0,.07-.02.08-.02v-.1s0,0,0,0c-.13,0-2.66.69-3.16.83l.03.1s.04,0,.05-.01c0-.03,0-.06,0-.09l.15-.04Z"/><path class="cls-2" d="M168.09,82.96l-.24.06h0l-2.57.68s0,0,0,.01c0,0,0,0,0,0,0,0,0,0,0,0,0,0,0,0,0,0l-.15.04s0,.06,0,.09c1.08-.3,2.63-.71,3-.8,0-.03,0-.06-.02-.08"/><path class="cls-2" d="M113.94,188.82c-.24-.64-.64-.76-1.49-.76-.54,0-.95.03-1.15.04-.2.66-.4,1.31-.59,2.18h1.03c.75,0,1.36-.04,1.87-.17-.06.39-.16,1.29-.18,1.87h-.81c-.18-.3-.55-.41-1.05-.41h-1.15l-.24,1.11c-.13.57-.14.74-.14,1.01,0,.33.16.5.42.5h.5c1.24,0,1.67-.3,2.05-.77h1.13c-.24.53-.65,1.53-.86,2.11h-6.1c.55-1.27.93-2.56,1.27-4.25l.52-2.49c.04-.23.08-.5.08-.74,0-.27-.16-.4-.34-.43l-.55-.09.1-.87h6.66c0,.53,0,1.51.03,2.13h-1.03Z"/><path class="cls-2" d="M125.41,189.19c-.14-.67-.69-1.24-1.47-1.24-.86,0-1.4.41-1.4,1.19,0,.36.16.56.88.98l.95.57c.99.6,1.4,1.39,1.4,2.3,0,1.03-.85,2.74-3.75,2.74-.88,0-1.67-.2-2.48-.77,0-.59-.04-1.64-.09-2.08h.99c.2.73.83,1.39,1.71,1.39,1.29,0,1.34-.81,1.34-1.21,0-.37-.16-.73-.98-1.21l-.88-.52c-.98-.57-1.34-1.17-1.34-2.01,0-.94.83-2.81,3.72-2.81.64,0,1.85.26,2.36.86,0,.37.04,1.47.07,1.84h-1.05Z"/><path class="cls-2" d="M138.79,188.88h-.91c-.17-.74-.75-.93-1.74-.93-.3,1.11-.52,2.14-.74,3.13l-.34,1.54c-.18.86-.26,1.24-.26,1.6,0,.19.08.29.35.33l.32.06-.16.94h-3.45c.75-1.36,1.19-2.93,1.51-4.5l.47-2.21c.06-.29.13-.56.17-.89h-.45c-.51,0-1.09.23-1.6,1.01h-.98c.28-.66.73-1.77.89-2.29h6.96c-.04.44-.07,1.56-.07,2.2"/><path class="cls-2" d="M141.9,195.75c-.68,0-1.23-.56-1.23-1.24s.55-1.26,1.23-1.26,1.23.56,1.23,1.24-.55,1.26-1.23,1.26"/><path class="cls-2" d="M155.94,192.46l-1.94,1.67h1.16c1.07,0,1.34-.16,1.9-.83h.96c-.25.53-.74,1.68-.93,2.24h-5.73l.21-1.04,3.21-2.86c.88-.79,1.56-1.43,1.56-2.64,0-.81-.57-1.1-1.01-1.1-.73,0-1.43.43-1.85,1.49h-1.16c.18-.46.57-1.5.69-1.99.62-.51,1.53-.89,2.55-.89s2.77.43,2.77,2.4c0,1.1-.3,1.73-2.39,3.54"/><path class="cls-2" d="M166,195.73c-1.24,0-2.58-.88-2.58-3.24,0-2.77,1.71-5.97,4.05-5.97,1.57,0,2.6,1.21,2.6,3.18,0,2.36-1.43,6.03-4.07,6.03M168.18,189.58c0-.87-.09-1.73-.83-1.73-1.29,0-2.02,3.3-2.02,4.73,0,.87.04,1.83.81,1.83,1.31,0,2.04-3.41,2.04-4.83h.02Z"/><path class="cls-2" d="M179.91,188.36l-1,4.5c-.16.64-.23,1.04-.21,1.24,0,.17.06.37.35.4l.74.08-.1.96h-4.27l.13-.96.55-.04c.33-.03.47-.09.57-.2.2-.23.32-.67.76-2.77l.68-3.16c-.47.14-1.29.34-1.83.47l.16-1.16c1.06-.23,2.09-.61,2.97-1.06h1.05c-.17.41-.4,1.07-.54,1.68"/><path class="cls-2" d="M191.16,190.96c.62.33,1.05,1.03,1.05,1.68.01,1.36-1.15,3.09-3.58,3.09-.91,0-2.02-.33-2.56-.72v-1.87h.95c.25.9.96,1.23,1.63,1.23,1.15,0,1.67-.67,1.66-1.6,0-.77-.58-1.2-1.08-1.2-.44,0-.82,0-1.27.04l.42-1.24h.95c.92,0,1.63-.5,1.61-1.56,0-.71-.64-.99-1.08-.99-.79,0-1.34.33-1.78,1.09h-1.06l.58-1.69c.65-.39,1.56-.71,2.55-.71.51,0,2.66.23,2.66,2.2,0,1.03-.69,1.83-1.64,2.24"/><path class="cls-2" d="M189.28,165.48c-.18-.03-.35-.12-.48-.28l-.3-.47c-.4-.97-.89-2.18-1.46-3.62-.58-1.44-1.15-2.9-1.73-4.36-.57-1.47-1.11-2.89-1.6-4.25-.5-1.37-.9-2.44-1.18-3.22-.3-.78-.46-1.21-.49-1.27-.34-.85-.62-1.62-.84-2.33-.22-.7-.37-1.22-.47-1.56h-10v3.18l.98.1c.25.03.47.12.65.28.19.15.28.36.28.61,0,.31-.04.61-.12.87-.08.27-.17.54-.3.82l-3.08,7.94c-.34.87-.69,1.75-1.06,2.61-.38.85-.74,1.69-1.12,2.48-.37.8-.75,1.55-1.11,2.23-.37.69-.73,1.28-1.07,1.78v1.83h9.21v-3.19l-1.21-.1c-.69-.09-1.03-.39-1.03-.89,0-.25.09-.62.28-1.11.19-.48.34-.85.47-1.1h8.14l.46,1.46c.13.37.24.73.35,1.08.11.35.17.58.17.7,0,.32-.02.56-.07.73-.04.17-.15.43-.3.77v1.65h9.16v-3.19c-.34-.07-.71-.13-1.12-.19M174.11,158.25c.71-1.88,1.27-3.35,1.68-4.41.4-1.07.7-1.92.89-2.58.21.66.46,1.37.72,2.14.26.77.46,1.32.58,1.66l1.12,3.19h-4.98Z"/><path class="cls-2" d="M93.5,163.85c-.92-1.76-2.04-3.02-2.73-4.25-.8-1.42-2.57-3.13-2.57-3.13,0,0,6.79-.83,6.92-8.2.16-8.74-8.89-8.72-8.89-8.72l-15.48-.02v3.05s2.17.06,2.64.82c.47.78.42,1.63.42,1.63,0,0-.02,6.88.02,9.17.04,2.17-.18,7.88-.18,7.88,0,0-.42,4.62-.93,6.19-.05.14,0,.61,0,.61h9.91v-3.06s-1.1,0-1.49-.49c-.35-.44-.24-2.09-.24-2.09v-6.29s.65.21.8.37c2.78,3.01,7.35,11.55,7.35,11.55h8.37v-3.06s-2.86.04-3.91-1.96M87.81,148.52c-.25,4.04-2.94,4.16-3.43,4.29-.7.2-3.44-.15-3.44-.15l.09-8.92s2.58-.34,2.82-.17c.12.08,4.27-.28,3.95,4.95"/><path class="cls-2" d="M219.8,168.86v-.8c.31-.97.5-2.29.58-3.95.08-1.66.12-3.57.12-5.73v-4.79c-.53,1.06-1.1,2.24-1.72,3.52-.62,1.28-1.25,2.6-1.89,3.94-.63,1.35-1.26,2.69-1.88,4.04-.63,1.34-1.18,2.59-1.67,3.75h-2.47c-.44,0-.79-.04-1.07-.11-.28-.08-.54-.24-.79-.47-.25-.24-.49-.55-.72-.94-.24-.39-.49-.9-.77-1.52l-5.86-12.21v10.09c0,.78.06,1.27.18,1.45.12.19.37.32.74.38l.98.14v3.19h-8.56v-.94c.21-.38.4-.75.53-1.13.14-.37.24-.79.32-1.24.07-.46.13-.98.16-1.57.03-.6.06-1.3.09-2.12.03-.94.08-1.95.15-3.02.06-1.08.11-2.19.14-3.32.02-1.12.06-2.23.09-3.31.03-1.08.05-2.07.05-2.98,0-.56-.13-1-.4-1.29-.26-.3-.58-.46-.95-.5l-1.53-.19v-3.14h7.81c.99,0,1.7.15,2.14.46.44.31.83.83,1.16,1.55l6.75,14.32c1.3-2.63,2.38-4.8,3.23-6.5.85-1.71,1.55-3.14,2.11-4.32.55-1.17,1-2.17,1.33-3,.32-.83.61-1.67.86-2.51h8.84v.79c-.15.32-.3.66-.42,1.06-.12.39-.23.95-.32,1.69-.09.73-.17,1.72-.21,2.96-.04,1.23-.07,2.87-.07,4.9v8.6c0,.56.12.93.37,1.1.25.17.61.29,1.07.35l.94.14v3.15h-9.45Z"/><path class="cls-2" d="M125.46,146.7c.12-.62.28-1.23.46-1.83v-.74h-8.23v3.14l.93.09c.44.03.72.13.86.31.14.17.21.55.21,1.15v10.75c0,1.6-.39,2.85-1.18,3.76-.78.91-1.83,1.36-3.12,1.36-1.76,0-3.03-.41-3.8-1.25-.77-.83-1.16-2.14-1.16-3.92v-5.68c0-2.1.04-3.82.14-5.16.09-1.34.34-2.6.75-3.76v-.79h-10.32v3.18l1.48.14c.4.06.73.24.98.54.25.3.37.71.37,1.24v11.08c0,1.31.25,2.53.75,3.64.49,1.11,1.21,2.08,2.14,2.89.93.82,2.07,1.45,3.42,1.91,1.35.45,2.87.68,4.58.68,1.49,0,2.86-.24,4.12-.71,1.26-.47,2.33-1.13,3.24-1.97.9-.85,1.6-1.84,2.1-2.98.49-1.14.75-2.4.75-3.78v-5.12c0-1.32,0-2.47.04-3.45.03-.99.09-1.86.18-2.63.09-.77.2-1.46.33-2.09"/><path class="cls-2" d="M159.14,142.55c.22-.89.46-1.76.75-2.61v-.42h-10.01v3.05l1.63.14c.62.07,1.09.29,1.39.66.31.38.47.97.47,1.78v11.55l-11.58-14.93c-.34-.41-.64-.75-.89-1.03-.24-.28-.5-.52-.79-.71-.28-.18-.59-.32-.95-.4-.36-.08-.8-.12-1.33-.12h-6.09v3.05l1.4.19c.93.12,1.52.37,1.79.73.26.36.39,1.05.39,2.08v10.42c0,1.1-.03,2.21-.09,3.33-.06,1.13-.14,2.23-.23,3.31-.1,1.08-.21,2.09-.36,3.05-.14.96-.28,1.8-.44,2.52v.66h9.63v-3.05l-1.35-.19c-.81-.13-1.35-.38-1.63-.78-.28-.39-.42-.92-.42-1.57v-12.58l12.47,16.06c.47.6.99,1.1,1.56,1.5.58.41,1.14.61,1.69.61h2.19c-.03-1.63-.05-3.02-.07-4.18-.02-1.16-.02-2.25-.02-3.29v-6.95c0-1.94.03-3.63.09-5.07.06-1.44.16-2.71.28-3.82.12-1.11.29-2.12.51-3.01"/></svg>