<?xml version="1.0" encoding="UTF-8"?>
<svg id="Layer_1" data-name="Layer 1" xmlns="http://www.w3.org/2000/svg" version="1.1" viewBox="0 0 205.9 166.81">
  <defs>
    <style>
      .cls-1 {
        fill: #a8c88c;
      }

      .cls-1, .cls-2, .cls-3, .cls-4, .cls-5, .cls-6, .cls-7, .cls-8, .cls-9, .cls-10, .cls-11, .cls-12, .cls-13, .cls-14, .cls-15, .cls-16, .cls-17, .cls-18, .cls-19, .cls-20, .cls-21, .cls-22, .cls-23, .cls-24, .cls-25, .cls-26 {
        stroke-width: 0px;
      }

      .cls-2 {
        fill: #cddaaf;
      }

      .cls-3 {
        fill: #b18bb3;
      }

      .cls-4 {
        fill: #cfd9bd;
      }

      .cls-5 {
        fill: #be9cbd;
      }

      .cls-6 {
        fill: #94c194;
      }

      .cls-7 {
        fill: #c3d29f;
      }

      .cls-8 {
        fill: #ac9bb4;
      }

      .cls-9 {
        fill: #ceb6ca;
      }

      .cls-10 {
        fill: #b199b8;
      }

      .cls-11 {
        fill: #dbe2d8;
      }

      .cls-12 {
        fill: #a9c197;
      }

      .cls-13 {
        fill: #e6ead7;
      }

      .cls-14 {
        fill: #e8d8e3;
      }

      .cls-15 {
        fill: #232020;
      }

      .cls-16 {
        fill: #cdb5cd;
      }

      .cls-17 {
        fill: #c4d3a5;
      }

      .cls-18 {
        fill: #c5b3c6;
      }

      .cls-19 {
        fill: #d6c3d3;
      }

      .cls-20 {
        fill: #bfa6c2;
      }

      .cls-21 {
        fill: #c5d7b3;
      }

      .cls-22 {
        fill: #b0baab;
      }

      .cls-23 {
        fill: #c4a7c5;
      }

      .cls-24 {
        fill: #a8c3a4;
      }

      .cls-25 {
        fill: #c3aabf;
      }

      .cls-26 {
        fill: #d8bace;
      }
    </style>
  </defs>
  <path class="cls-15" d="M157.82,98.12c-1.26-1.65-2.8,2.97-1.27,3.98,2.14,1.41,1.83-3.2,1.53-4.11"/>
  <path class="cls-15" d="M168.74,103.28c-1.08-1.79-1.55-4.27-4.29-4.26-2.61.01-2.94,2.87-3.36,4.86,2.27-3.3,4.47-.13,7.64-.47"/>
  <path class="cls-23" d="M106.9,40.21c-3.06.14-5.9,1.58-9.02,1.55-.98,0-3.11.09-3.94-.39-.95-.55-1.3-2.07-2-2.85-1.08-1.17-5.63-3.41-6.03-.73-.19,1.27,4.71,5.75,3.02,6.77-.51,1.58-1.35,3.45-.54,5.07.89,1.81,3.45,2.22,5.13,2.66,1.02.27,1.49.62,1.73,1.05.41-.46.9-.79,1.48-.98,0-.03-.01-.04-.01-.07-.09-2.25,3.88-3.58,5.49-3.84,4.81-.76,1.96,3.01,3.6,5.19.76,1.01,1.41.7,1.95,1.23,1.6-.32,3.2-.39,4.68-1.2,1.74-.95,2.74-2.74,4.41-3.79-1.85-4.52-4.28-9.96-9.95-9.69"/>
  <path class="cls-25" d="M73.44,100.69c1.39,1.16,3.08,2.19,4.34,1.51,1.15-.62,1.17-1.97,1.33-3.33-.75.17-1.72.16-2.54.4-.94.29-2.07.78-3.12,1.41"/>
  <path class="cls-3" d="M76.74,92.73c-1.17-1.02-2.36-2.13-3.56-3.21-.95.48-1.79,1.23-2.49,2.12-1.79,2.29-1.14,5.2.87,7.26.45.47,1.13,1.15,1.9,1.79,1.05-.63,2.18-1.13,3.12-1.41.82-.25,1.79-.24,2.54-.4.11-.91.31-1.81.93-2.5-.62-1.39-2.2-2.69-3.3-3.64"/>
  <path class="cls-25" d="M81.73,92.06c-1.04-1.28-3.3-2.52-4.81-2.94-1.37-.38-2.63-.17-3.74.41,1.21,1.08,2.4,2.19,3.56,3.21,1.09.95,2.67,2.26,3.3,3.64.11-.12.19-.25.33-.36,1.71-1.33,3.26-1.64,1.37-3.96"/>
  <path class="cls-22" d="M124.24,108.05c.04-.1.08-.18.12-.28-2.15.91-4.08,2.51-6.6,2.42.02.7.09,1.44.19,2.13.37,0,.72.06,1.06.25,1.5.89,1.33,3,3.51,3.06,1.46.04,2.83-1.23,3.6-2.6-1.51-1.32-2.57-3-1.87-4.98"/>
  <path class="cls-7" d="M129.22,101.52c-.37-1.07-.91-2.99-.77-4.51-.6.83-.8,2.09-.93,3.82-.2,2.9-2.2,4.54-3.18,6.94.69-.29,1.38-.51,2.13-.57-.75.06-1.45.28-2.13.57-.04.1-.08.18-.12.28-.7,1.98.36,3.66,1.87,4.98.26-.46.45-.92.56-1.36-.11.43-.3.9-.56,1.36.93.83,2.03,1.52,2.98,2.05.09.04.19.1.3.16.09-.25.19-.51.27-.77.45-1.35.2-2.58.46-4.01.23-1.2,1.06-1.68,1.58-2.75.38-.78.25-1.66.45-2.45-1.36-.98-2.56-2.72-2.92-3.75"/>
  <path class="cls-13" d="M131.49,95.83c-1.54.02-2.48.41-3.04,1.18-.15,1.52.39,3.44.77,4.51.36,1.02,1.55,2.76,2.92,3.74.08-.33.21-.65.46-.94.82-.96,2.09-.88,3.26-1.16-1.41-1.53-2.84-5.52-4.36-7.33"/>
  <path class="cls-21" d="M101.35,92.22c.97-.09,3.21-1.03,2.39-2.55-.75-1.4-2.59.08-3.43.14-.28.02-.59-.03-.9-.14-.25.68-.43,1.49-.58,2.34.84.18,1.69.27,2.52.2"/>
  <path class="cls-18" d="M87.53,86.67c-.81-.3-2.35-2.13-3.35-1.52-1.41.87.49,2.36,1.4,2.6,1.33.35,2.65.06,3.94.55.05.02.09.04.14.06.08-.54.23-1.01.49-1.4-.92.05-1.81,0-2.62-.3"/>
  <path class="cls-12" d="M90.15,86.97c-.26.39-.41.86-.49,1.4,1.32.51,2.59,1.19,3.9,1.75,1.6.68,3.43,1.52,5.27,1.91.15-.85.34-1.67.58-2.34-.95-.32-1.93-1.14-2.22-1.93-.09-.22-.13-.41-.16-.57-.8-.24-1.55-.62-2.32-.92-1.43.21-3.03.62-4.57.71"/>
  <path class="cls-11" d="M117.94,112.32c-.11-.69-.17-1.43-.19-2.13-.26,0-.52,0-.81-.05-1.71-.32-3.02-1.63-4.66-2.08-.63-.17-1.71-.34-2.45-.2.47,1.12.23,2.48.28,3.64,1.06.73,2.71,1.42,3.38,1.57,1.44.32,3.06-.75,4.46-.74"/>
  <path class="cls-4" d="M129.08,115.08c-.95-.53-2.05-1.22-2.98-2.05-.77,1.37-2.14,2.65-3.6,2.6-2.17-.06-2.01-2.17-3.5-3.06-.34-.19-.69-.25-1.06-.25-1.4,0-3.02,1.06-4.46.74-.67-.15-2.31-.84-3.38-1.57.06,1.34.53,2.4,3.06,2.42-.46.41-1.25.35-2.05.19,1.75,1.17,3.56,2.28,4.1,2.53,2.69,1.23,5.59,1.04,8.47,1.01,1.83-.03,3.21.41,4.71.95.16-1.11.58-2.21.98-3.35-.1-.05-.21-.11-.29-.16"/>
  <path class="cls-2" d="M148.81,126.19c-1.61-.72-2.59-1.29-3.98-2.42-1.28-1.03-5.89-4.67-7.6-3.83-2.16,1.06,3.87,5.09-.86,5.34-2.47.13-5.73-.78-7.15-2.93-.87-1.31-1-2.54-.83-3.77-1.49-.54-2.88-.98-4.71-.95-2.88.04-5.78.23-8.47-1.01-.54-.25-2.35-1.35-4.1-2.53-.57-.11-1.15-.28-1.61-.37-1.52-.3-2.91-.32-4.52-.17-3.94.38-2.34,3.11-.22,5.21,4.29,4.23,10.43,6.35,16.17,4.3,1.26-.45,2.6-1.29,3.98-.73,1.28.52,2.01,2.26,3.12,3.06,1.89,1.36,5.01,2.51,7.28,2.62,1.41.07,2.44-.54,3.82-.69,1.37-.15,2.95-.07,4.33,0,2.64.13,5.4,1.21,7.95,1.01.26-1.05-1.76-1.79-2.61-2.17"/>
  <path class="cls-19" d="M119.21,80.34c.08,0,.14-.01.22-.01.05-.07.08-.13.12-.2-1.64-.81-5.37-.12-7.09-.48-2.47-.52-4.21-1.78-5.55-3.95-.68-1.1-1.3-2.29-1.94-3.46-.7,1.52-1.9,2.83-3.1,4.32-1.03,1.28-2.22,3.01-3.75,3.9.04.18.06.37.07.56.38.68.57,1.43.4,2.25-.33,1.53-1.57,1.67-2.93,1.62-.02.4-.07.82-.22,1.28-.23.02-.47.05-.72.09.77.3,1.52.68,2.32.92-.17-1.08.74-1.25,1.85-1.89,2.67-1.52,3.89-2.31,6.77-.95,2.3,1.07,4.96,1.18,7.15-.21,1.33-.84,3.48-3.21,5.07-1.73.05.04.09.12.14.17.51-.78.99-1.54,1.42-2.25-.07,0-.14.02-.22.01"/>
  <path class="cls-1" d="M121.59,86.88c1.04,2.89.43,5.01-.52,7.88-.49,1.49-.52,2.2.09,3.65.49,1.15,1.49,2.34,1.35,3.62-.24,2.26-3.13,3.34-4.3,5.03-.35.51-.49,1.75-.46,3.12,2.52.09,4.45-1.51,6.6-2.41.98-2.41,2.97-4.04,3.18-6.94.12-1.73.32-2.99.93-3.82.06-.68.26-1.28.68-1.68.82-.77,1.6-.4,2.36.51.29,0,.56-.02.89,0,2.14.13,4.01.76,5.95.96-.09-.09-.18-.16-.27-.26-1.82-2.23-1.47-5.63-4.13-7.59-2.25-1.66-4.88-.94-6.97-3.05-1.37-1.39-2.66-4.35-4.47-5.42-2.15,1.83-1.88,3.72-.92,6.41"/>
  <path class="cls-17" d="M129.13,95.32c-.42.4-.61,1.01-.68,1.68.56-.77,1.5-1.15,3.04-1.18-.76-.9-1.54-1.27-2.36-.51"/>
  <path class="cls-17" d="M141.74,98.38c-1.38-.26-2.5-.65-3.4-1.59-1.95-.2-3.81-.82-5.95-.96-.33-.02-.61-.01-.89,0,1.53,1.81,2.96,5.81,4.36,7.33.12-.03.23-.06.35-.09,1.98-.64,5.99-.99,7.32-2.89,1.17-1.68-.3-1.52-1.78-1.8"/>
  <path class="cls-5" d="M101.87,76.55c1.2-1.49,2.4-2.79,3.1-4.32-1.96-3.62-4.11-7.13-8.64-7.56-2.29-.23-4.08-.52-5.42,1.68-1.11,1.81-.97,3.75.18,5.56,1.06,1.68,2.27,3.57,3.73,4.95,1.17,1.1,2.9,1.98,3.3,3.59,1.53-.89,2.72-2.62,3.75-3.9"/>
  <path class="cls-8" d="M98.58,83.26c.18-.83-.02-1.58-.4-2.25,0,.11.03.21.02.34-3.61.22-2.47,1.45-2.55,3.54,1.36.05,2.6-.09,2.93-1.62"/>
  <path class="cls-26" d="M119.15,55.52c-.49-1.17-.94-2.37-1.46-3.6-.27-.63-.55-1.32-.83-2.02-1.67,1.05-2.67,2.84-4.41,3.79-1.48.81-3.07.88-4.68,1.2.19.19.37.48.53.99.26.83.69,2.31.68,3.36,1.25-.98,2.52-1.88,4.33-2.15,2.18-.33,4.04-.55,5.84-1.56"/>
  <path class="cls-6" d="M100.53,58.85c1.75-.87,5.79-3.11,3.21-5.34-1.72-1.49-6.8,1.29-7.01-1.13-.58.18-1.08.51-1.48.98.48.84.03,2,.77,3.53.89,1.84,2.65,2.91,4.51,1.97"/>
  <path class="cls-20" d="M108.11,64.67c2.52.09,4.23-3.54,6.45-3.59,2.91-.05,2.13,5.54,5.68,4.97,3.94-.63,2.04-4.85.74-6.9-.75-1.17-1.32-2.38-1.84-3.63-1.8,1.01-3.66,1.23-5.84,1.56-1.82.27-3.09,1.17-4.33,2.16,0,.14.02.31,0,.43-.27,1.71-1.74,1.36-2.38,2.59-.68,1.29.24,2.36,1.52,2.41"/>
  <path class="cls-18" d="M88.53,75.34c-3.03-.24-6.99-5.4-10.1-1.93-2.27,2.54.14,6.87,1.79,9.1-.04-2.51-.3-4.69,2.28-5.76,1.9-.79,3.95-.39,5.86-1.41h.17Z"/>
  <path class="cls-24" d="M113.83,70.52c1.3,1.02,2.23,1.46,3.12,2.93.68,1.13,2.12,2.88,3.34,1.03,2.51-3.78-4.81-3.96-6.46-3.96"/>
  <path class="cls-16" d="M128.36,78.94c-.13-3.47,1.72-5.68,4.49-7.6,1.1-.77,2.42-1.44,3.65-1.88,1.11-.4,2.42-.54,3.51-.95-1.36-.97-3.71-2.81-5.56-3.16-2.03-.38-4.86,1.24-6.24,2.55-2.59,2.46-4.93,9.56.14,11.04"/>
  <path class="cls-9" d="M135.29,79.61c-1.51.35-1.5,1.9-1.85,3.12,1.01-.54,5.27-1.61,5.35-2.05h-.18c-1.17-.01-2.02-1.37-3.33-1.07"/>
  <path class="cls-11" d="M121.16,98.41c-.61-1.46-.57-2.16-.08-3.65.94-2.87,1.55-4.99.51-7.88-.97-2.69-1.24-4.58.92-6.41-.26-.16-.54-.28-.83-.34-.7-.16-1.23.08-1.88.18.09.07.21.12.28.21-.07-.09-.19-.14-.28-.21-.12.02-.24.02-.37.02-.43.71-.91,1.47-1.42,2.25.9,1.09,1.6,4.35,1.73,5.51.18,1.65.84,5-.69,5.86-.94.53-2.2.06-3.26.73-.68.42-.96.97-1.57,1.3.69,1.72,2,3.13,1.87,5.2-.14,2.22-1.13,4.99-1.94,7.03-.29.11-.64.16-1.02.19,1.27.58,2.41,1.48,3.81,1.74.29.05.54.04.81.05-.03-1.37.11-2.61.46-3.12,1.17-1.7,4.05-2.77,4.3-5.03.15-1.29-.86-2.47-1.35-3.62"/>
  <path class="cls-10" d="M116.09,101.17c.13-2.07-1.18-3.48-1.87-5.2-.12.07-.23.13-.38.18-1.39-2.33-3.66-4.01-6.41-4.11-.69-.03-1.43-.1-2.04.21-1.06.54-.52.96-1.08,1.68-.79,1.02-2.02,1.09-2.82,2.2-3.62,5.02,4.7,8.52,7.46,10.58.44.33.7.72.88,1.14.75-.14,1.83.02,2.46.2.3.08.57.22.85.34.38-.03.74-.08,1.02-.19.81-2.04,1.8-4.81,1.94-7.03"/>
  <path class="cls-15" d="M16.24,108.06s30.51-14.81,39.18-15.67c.87,0,1.73.86,1.73,1.72s.17,1.89.87,1.38c.7-.52,4.33-3.27,2.77-6.03-1.56-2.76-6.93.17-8.32.86-1.39.69-25.4,8.44-37.66,15.33-1.69,3.44,1.43,2.41,1.43,2.41"/>
  <path class="cls-15" d="M46.4,127.56s-1.3-4.13-1.82-11.37c-.52-7.23-.39-8.91-.65-11.49-.26-2.58.26-3.75,0-5.04-.26-1.29.91-2.69,1.95-1.41,1.04,1.28.52,29.31.52,29.31"/>
  <path class="cls-15" d="M114.68,99.04c-.02.05-.02.13-.01.2.1-.07.21-.13.3-.2-.1,0-.19.01-.29,0"/>
  <path class="cls-15" d="M125.74,120.85c-.21-1.07-.61-1.86-.69-2.97-.07-1.07.06-2.16,0-3.23-.17-3.32-.85-9.82-6.01-7.52-1.24.55-1.55,1.49-2.28,2.49-.62.86-1.43,1.51-2.12,2.32-.48.57-1.42,2.09-2.34,1.42-.84-.62.04-2.01.5-2.59.58-.72,1.37-1.24,1.82-2.09.44-.83.54-1.83.91-2.68.87-1.99,2.49-3.62,3.02-5.81,1.24-5-5.25-5.89-7.8-2.45-1.26,1.7-1.98,3.77-2.18,5.81-.23,2.25.38,4.32.49,6.46.13,2.67-1.14,2.88-3.38,3.23-2.35.36-3.58-.14-4.52-2.33-.6-1.4-.94-4.48-2.77-4.77-1.4-.23-2.1.7-2.73,1.76-.41.68-1.06,2.93-2.04,2.08-.94-.81-.3-2.55-.91-3.49-1.57-2.42-4.63.04-5.1,1.85-.24.92-.38,5.72-2.52,3.51-.6-.62-.37-2.02-1.39-2.36-.87-.29-1.75.7-2.25,1.27-.51.58-.96,1.61-1.78,1.85-1.39.41-1.9-.64-1.17-1.68.71-1.03,3.2-2.6,4.32-3.2.68-.36,2.16-.43,1.83-1.48-.31-.95-1.77-.56-2.5-.48-2.02.19-3.44.84-5.04,2.1-1.48,1.16-2.4,2.92-2.77,4.62-.24,1.11-.15,1.86-1.42,2.07-.99.16-2.06-.4-2.9-.74-1.69-.69-3.15-1.58-4.29-3.1-1.02-1.36-1.89-3.5-3.61-4.14-2.04-.75-3.86.32-5.17,1.68-.78.82-2.6,3.98-3.52,4.08-.71-2.61-.74-5.5-1.32-8.24-.23-1.14-.42-2.29-.35-3.45.01-.14.11-.77.15-1.39.04-.64.02-1.26-.22-1.33-2.48-.73-1.52,6.19-1.41,7.21.19,1.74.5,3.45.5,5.19,0,2.57.99,4.87,1.48,7.38.27,1.4.41,2.9,1.56,3.93,1.66,1.49,1.5-1.82,1.53-2.55.1-1.97.45-4.18,1.33-6.04.68-1.42,1.59-4.55,3.45-3.75,1.93.83,3.15,2.92,4.61,4.34,1.42,1.39,3.19,2.97,5.3,3,1.12.02,1.78-.48,2.76-.74,1.04-.28,2.08-.23,3.11-.57.91-.3,1.76-.83,2.71-1.02,1.67-.32,3.88-.28,5.37.49,1.94,1,2.59,1.17,3.83-.9.8-1.33,1.38-3.46,2.64-4.38,1.31,1.2.33,5.84,2.73,5.7,1.67-.1,2.57-3.35,3.15-4.52.4-.81.89-2.07,1.79-1.42.48.34.98,1.93,1.17,2.44.74,1.98.51,4.52,3.25,4.78,2.01.19,4.19-.78,6.34-.78,1.98,0,4.57.63,6.27-.39,1.71-1.02,2.58-3.03,4.19-4.1,2.56-1.7,3.21.94,3.09,3.06-.12,2.25-.17,4.09.52,6.21.27.83.61,2.04,1.56,2.32,1.53.45,1.41-.91,1.21-1.94M110.86,103.13c.32-1.97,2.27-2.86,3.81-3.88,0-.07,0-.15.01-.2.1.01.19-.01.29,0,.07-.05.14-.1.21-.15-.07.05-.14.1-.21.15.02,0,.04,0,.06,0-.01,1.37-.67,2.93-1.05,4.24-.45,1.51-.5,3.18-1.03,4.63-1.21.22-2.24-3.83-2.09-4.79"/>
  <path class="cls-15" d="M132.08,107.65c1.06.21,2.2-.09,3.25-.1,2.08-.02,3.98,1.67,4.52,3.64.45,1.62-.24,4.45,1.85,5.11,2.14.67,2.95-2.86,3.51-4.24.5-1.23,1.35-3.94,2.86-4.12,1.99-.23,1.79,3.87,2.24,5.26.72,2.2,2.47,2.55,4.52,2.35,1.99-.2,3.87.41,5.85.78,2.77.52,6.07.36,7.67-2.2.5-.79,1.45-3.25,2.84-2.3,1.09.75-.66,3.65,1.33,3.27,1.25-.24,1.85-2.66,2.44-3.58.92-1.46,3.21-3.43,4.33-1.01.88,1.91.91,4.53,1.56,6.61.76,2.42,2.01,4.43,3.51,6.44.6.81,1.22,1.7,2.21,2.07,1.04-.73-2.06-4.11-2.58-5.05-.99-1.82-1.32-4.01-1.82-5.97-.49-1.95-.73-4.04-1.46-5.91-.92-2.31-2.98-1.42-4.81-.42-.93.5-1.66.79-2.6.06-.85-.66-1.03-1.66-2.37-.98-1.64.84-2.92,3.38-3.89,4.81-.36.53-1.18,2.24-2.04,2.08-2.17-.39,1.8-5.53,1.98-6.21.41-1.62-.99-3.45-2.77-3.23-1.63.2-2.53,2.04-3.28,3.36-.75,1.34.29,6.19-1.66,6.07-1.77-.11-1.56-4-1.43-5.3.08-.78.7-2.46-.09-3.1-1.19-.96-1.46.89-1.62,1.68-.33,1.66-.18,4.57-1.57,5.79-2.39,2.09-2.79-2.42-3.22-3.85-.54-1.82-1.83-4.43-4.17-4.01-1.99.36-3.17,2.26-4.25,3.89-.84,1.25-1.34,2.28-1.85.25-.33-1.3-.39-2.15-1.56-2.97-1.21-.85-2.37-.97-3.78-.9-1.15.06-3.18-.69-4.23,0-.93.62-.55,1.67.59,1.9"/>
  <path class="cls-14" d="M107.77,46.33c1.26,0,2.58-.18,3.67.48.86.52,2.01,1.75,1.17,2.78-.86,1.04-2.64.73-3.38-.19-.7-.87-.97-2.15-1.59-3.07"/>
  <path class="cls-5" d="M19.11,81.39c0,.14.03.19.18.19v.09h-1.29v-.09c.16,0,.18-.05.18-.19v-4.15c0-.14-.03-.19-.18-.19v-.09h3.13c1.13,0,1.73.6,1.73,1.36s-.47,1.26-1.27,1.38l1.2,1.7c.09.13.14.19.28.19v.09h-1.44v-.09c.08,0,.09-.03.09-.05,0-.05-.02-.08-.08-.18l-1.19-1.69h-1.34v1.73ZM19.13,78.9h1.97c.47,0,.84-.18.84-.59s-.38-.59-.84-.59h-1.97v1.18Z"/>
  <path class="cls-5" d="M23.78,81.59c.14,0,.17-.05.17-.19v-4.15c0-.14-.03-.19-.17-.19v-.09h4.21c.16,0,.22-.05.22-.14h.09v1.08h-.09c0-.12-.06-.17-.22-.17h-3.12v1.16h2.04c.16,0,.22-.05.22-.17h.09v1.09h-.09c0-.05-.01-.09-.05-.12-.03-.03-.09-.04-.17-.04h-2.04v1.27h3.18c.16,0,.22-.05.22-.16h.09v1.06h-.09c0-.09-.06-.14-.22-.14h-4.27v-.09Z"/>
  <path class="cls-5" d="M33.2,78.34l-.1-.06s.01-.06.01-.09c0-.08-.61-.54-1.67-.54s-1.45.31-1.45.71c0,1.06,3.82-.49,3.82,1.86,0,.86-.83,1.52-2.49,1.52s-2.04-.51-2.19-.51c-.04,0-.06.03-.09.05l-.08-.02.54-1.1.1.05s-.01.05-.01.1c0,.38.84.66,1.67.66,1.18,0,1.58-.34,1.58-.69,0-1.27-3.77.31-3.77-1.85,0-1.09,1.15-1.55,2.41-1.55,1.13,0,1.92.49,2,.49.08,0,.1-.03.12-.05l.1.03-.5.97Z"/>
  <path class="cls-5" d="M37.08,81.4c0,.14.03.19.2.19v.09h-1.32v-.09c.17,0,.19-.05.19-.19v-3.67h-1.56c-.16,0-.22.05-.22.16h-.09v-1.08h.09c0,.1.06.15.22.15h4.05c.16,0,.22-.05.22-.15h.09v1.08h-.09c0-.11-.06-.16-.22-.16h-1.56v3.67Z"/>
  <path class="cls-5" d="M38.72,81.68v-.09c.12,0,.16-.04.25-.25l1.77-3.99c.03-.06.07-.14.07-.19,0-.07-.05-.1-.14-.12v-.09h1.41v.09c-.1.01-.14.05-.14.1,0,.05.03.1.06.17l1.88,4.03c.09.2.12.25.25.25v.09h-1.29v-.09c.08,0,.12-.03.12-.07,0-.07-.06-.16-.49-1.09h-2.23c-.38.84-.47.97-.47,1.06,0,.06.04.09.1.1v.09h-1.16ZM42.1,79.69l-.78-1.7-.77,1.7h1.54Z"/>
  <path class="cls-5" d="M45.92,79.93c0,.77.3,1.05,1.47,1.05s1.47-.29,1.47-1.05v-2.69c0-.14-.03-.19-.19-.19v-.09h1.29v.09c-.16,0-.18.05-.18.19v2.84c0,1.25-.9,1.66-2.39,1.66s-2.39-.42-2.39-1.66v-2.84c0-.14-.03-.19-.18-.19v-.09h1.29v.09c-.16,0-.19.05-.19.19v2.69Z"/>
  <path class="cls-5" d="M52.05,81.39c0,.14.03.19.18.19v.09h-1.29v-.09c.16,0,.18-.05.18-.19v-4.15c0-.14-.03-.19-.18-.19v-.09h3.13c1.13,0,1.73.6,1.73,1.36s-.47,1.26-1.27,1.38l1.2,1.7c.09.13.14.19.28.19v.09h-1.44v-.09c.08,0,.09-.03.09-.05,0-.05-.02-.08-.08-.18l-1.19-1.69h-1.34v1.73ZM52.07,78.9h1.97c.47,0,.84-.18.84-.59s-.38-.59-.84-.59h-1.97v1.18Z"/>
  <path class="cls-5" d="M56.39,81.68v-.09c.12,0,.16-.04.25-.25l1.77-3.99c.03-.06.07-.14.07-.19,0-.07-.05-.1-.14-.12v-.09h1.41v.09c-.1.01-.14.05-.14.1,0,.05.03.1.06.17l1.88,4.03c.09.2.12.25.25.25v.09h-1.29v-.09c.08,0,.12-.03.12-.07,0-.07-.06-.16-.49-1.09h-2.23c-.38.84-.47.97-.47,1.06,0,.06.04.09.1.1v.09h-1.15ZM59.77,79.69l-.78-1.7-.77,1.7h1.54Z"/>
  <path class="cls-5" d="M67.43,81.4c0,.14.05.19.18.19v.09h-1.2v-.09c.07,0,.13-.01.13-.05,0-.06-.04-.08-.12-.18l-2.92-3.14v3.17c0,.14.03.19.18.19v.09h-1.15v-.09c.14,0,.16-.05.16-.19v-4.15c0-.14-.01-.19-.16-.19v-.09h1.38v.09c-.12,0-.18.03-.18.08,0,.02.03.05.07.1l2.82,2.99v-2.98c0-.14-.01-.19-.17-.19v-.09h1.16v.09c-.13,0-.18.05-.18.19v4.15Z"/>
  <path class="cls-5" d="M71.11,81.4c0,.14.03.19.2.19v.09h-1.32v-.09c.17,0,.19-.05.19-.19v-3.67h-1.56c-.16,0-.22.05-.22.16h-.09v-1.08h.09c0,.1.06.15.22.15h4.05c.16,0,.22-.05.22-.15h.09v1.08h-.09c0-.11-.07-.16-.22-.16h-1.56v3.67Z"/>
  <path class="cls-15" d="M153.49,127.15l.56-.05v.15c0,.16.03.32.11.45.08.14.2.24.38.32.18.08.38.11.63.11.34,0,.61-.08.79-.23.18-.15.27-.32.27-.51,0-.14-.05-.26-.14-.37-.1-.11-.36-.26-.8-.44-.34-.15-.57-.26-.69-.34-.19-.13-.34-.26-.43-.42-.09-.15-.14-.32-.14-.51,0-.22.06-.42.18-.6.12-.18.3-.31.53-.41.23-.09.5-.14.79-.14.35,0,.64.06.88.18.24.12.41.27.52.47.11.19.16.38.16.56,0,.02,0,.05,0,.09l-.55.05c0-.12-.01-.22-.03-.29-.04-.12-.1-.22-.18-.3-.08-.08-.19-.15-.34-.2-.14-.05-.3-.07-.48-.07-.31,0-.56.07-.73.21-.13.11-.2.25-.2.43,0,.11.03.2.08.28.05.08.15.16.29.24.1.06.34.17.72.34.31.14.52.24.64.32.16.11.28.23.36.38.08.15.13.31.13.5,0,.23-.07.45-.21.64-.14.2-.34.35-.59.45-.25.11-.54.16-.86.16-.49,0-.88-.11-1.19-.32-.31-.21-.46-.59-.46-1.14"/>
  <path class="cls-15" d="M157.24,128.53l.65-3.11h.53l-.65,3.11h-.53ZM158.01,124.84l.13-.6h.53l-.13.6h-.53Z"/>
  <path class="cls-15" d="M158.59,128.53l.65-3.11h.48l-.11.54c.21-.21.4-.37.58-.46.18-.1.37-.15.56-.15.25,0,.45.07.59.21.14.14.22.32.22.55,0,.12-.03.3-.08.54l-.39,1.88h-.53l.41-1.97c.04-.19.06-.33.06-.42,0-.1-.04-.19-.11-.25-.07-.06-.17-.1-.31-.1-.27,0-.51.1-.72.29-.21.2-.37.53-.47,1l-.3,1.44h-.53Z"/>
  <path class="cls-15" d="M164.07,127.4l.53.05c-.13.39-.32.68-.57.87-.24.19-.52.28-.84.28-.34,0-.61-.11-.82-.33-.21-.22-.31-.52-.31-.92,0-.34.07-.67.2-1,.14-.33.33-.58.58-.75.25-.17.54-.26.86-.26s.6.09.79.28c.19.19.29.44.29.75l-.52.03c0-.2-.06-.35-.17-.46-.11-.11-.26-.16-.44-.16-.21,0-.4.07-.55.2-.16.14-.28.34-.37.61-.09.27-.13.54-.13.79s.06.46.18.6c.12.13.26.2.43.2s.34-.07.49-.2c.16-.13.28-.33.37-.6"/>
  <path class="cls-15" d="M167.2,127.48l.51.05c-.07.26-.24.5-.51.73-.27.23-.58.35-.95.35-.23,0-.44-.05-.63-.16-.19-.11-.34-.26-.44-.46-.1-.2-.15-.43-.15-.69,0-.34.08-.67.24-.99.16-.32.36-.55.61-.71.25-.15.52-.23.81-.23.37,0,.67.12.89.35.22.23.33.54.33.94,0,.15-.01.31-.04.47h-2.29c0,.06-.01.11-.01.16,0,.29.07.51.2.66.13.15.3.23.49.23.18,0,.36-.06.54-.18.18-.12.31-.29.41-.51M165.66,126.71h1.74c0-.05,0-.09,0-.12,0-.26-.07-.47-.2-.61-.13-.14-.3-.21-.51-.21-.23,0-.43.08-.62.23-.19.16-.33.39-.42.71"/>
  <path class="cls-15" d="M171.16,128.53l.68-3.24c-.29.23-.7.42-1.24.55l.1-.48c.26-.1.52-.24.78-.41.26-.17.45-.32.58-.45.08-.08.15-.17.22-.28h.31l-.9,4.31h-.53Z"/>
  <path class="cls-15" d="M173.45,127.55l.5-.05c.03.24.1.41.21.51.1.1.23.15.37.15.2,0,.39-.09.56-.26.26-.26.44-.63.56-1.11-.18.13-.34.23-.47.28-.14.06-.28.08-.42.08-.26,0-.5-.09-.7-.26-.27-.23-.41-.56-.41-.98,0-.48.16-.9.47-1.24.27-.3.6-.45,1-.45.36,0,.65.13.88.39.24.26.35.63.35,1.11s-.08.93-.23,1.38c-.19.53-.44.93-.75,1.18-.26.21-.55.31-.87.31-.3,0-.54-.09-.73-.28-.19-.18-.29-.45-.32-.78M174.15,125.85c0,.27.07.48.21.64.14.16.31.24.51.24.15,0,.29-.05.44-.15.14-.1.27-.25.37-.45.1-.2.16-.4.16-.61,0-.16-.03-.32-.1-.46-.07-.14-.16-.25-.28-.32-.12-.07-.24-.11-.36-.11s-.23.03-.35.09c-.11.06-.22.15-.31.28-.1.12-.17.26-.22.42-.05.16-.07.3-.07.42"/>
  <path class="cls-15" d="M177.73,126.17c-.16-.09-.28-.2-.36-.34-.08-.14-.12-.28-.12-.44,0-.26.09-.5.28-.72.25-.3.59-.45,1.01-.45.38,0,.67.1.89.3.22.2.32.45.32.74,0,.21-.06.4-.18.56-.12.17-.3.3-.55.4.17.11.3.22.37.34.09.16.14.34.14.55,0,.38-.14.73-.41,1.03s-.63.45-1.09.45c-.36,0-.66-.11-.88-.33-.23-.22-.34-.5-.34-.83,0-.31.08-.58.24-.81.16-.23.38-.38.66-.46M177.36,127.49c0,.12.03.23.09.34.06.11.14.19.26.26s.25.1.4.1c.29,0,.52-.14.7-.4.14-.21.21-.44.21-.68,0-.2-.06-.36-.19-.49-.13-.13-.3-.19-.51-.19-.26,0-.49.1-.67.29-.18.2-.28.45-.28.77M177.77,125.42c0,.18.06.33.18.44.12.11.28.17.49.17.24,0,.44-.07.59-.22.15-.15.22-.33.22-.54,0-.18-.06-.33-.18-.44-.12-.12-.28-.17-.49-.17-.16,0-.3.04-.43.11-.13.07-.23.17-.29.29-.06.12-.09.25-.09.36"/>
  <path class="cls-15" d="M180.11,127.55l.5-.05c.03.24.1.41.21.51.1.1.23.15.37.15.2,0,.39-.09.56-.26.26-.26.44-.63.56-1.11-.18.13-.34.23-.47.28-.14.06-.28.08-.42.08-.26,0-.49-.09-.7-.26-.27-.23-.41-.56-.41-.98,0-.48.16-.9.47-1.24.27-.3.6-.45,1-.45.36,0,.65.13.88.39.24.26.35.63.35,1.11s-.08.93-.23,1.38c-.19.53-.44.93-.75,1.18-.26.21-.55.31-.87.31-.3,0-.54-.09-.73-.28-.19-.18-.29-.45-.32-.78M180.82,125.85c0,.27.07.48.21.64.14.16.31.24.51.24.15,0,.29-.05.44-.15.14-.1.27-.25.37-.45.1-.2.16-.4.16-.61,0-.16-.03-.32-.1-.46-.07-.14-.16-.25-.28-.32-.12-.07-.24-.11-.36-.11s-.23.03-.35.09c-.11.06-.22.15-.31.28-.1.12-.17.26-.22.42-.05.16-.07.3-.07.42"/>
</svg>