<?xml version="1.0" encoding="utf-8"?>
<!-- Generator: Adobe Illustrator 26.2.1, SVG Export Plug-In . SVG Version: 6.00 Build 0)  -->
<svg version="1.1" id="Layer_2" xmlns="http://www.w3.org/2000/svg" xmlns:xlink="http://www.w3.org/1999/xlink" x="0px" y="0px"
	 viewBox="0 0 2880 1354" style="enable-background:new 0 0 2880 1354;" xml:space="preserve">
<style type="text/css">
	.st0{fill-rule:evenodd;clip-rule:evenodd;fill:#FFF8FE;}
	.st1{fill-rule:evenodd;clip-rule:evenodd;fill:url(#SVGID_1_);}
	.st2{fill-rule:evenodd;clip-rule:evenodd;fill:url(#SVGID_00000011023532301260270370000015813816112198419105_);}
</style>
<rect class="st0" width="2880" height="1349.09"/>
<g>
	
		<linearGradient id="SVGID_1_" gradientUnits="userSpaceOnUse" x1="1182.5052" y1="-2642.396" x2="1137.1642" y2="-1703.8477" gradientTransform="matrix(0 -1 1 0 2654.9038 2515.7878)">
		<stop  offset="3.356507e-07" style="stop-color:#FFF2B3"/>
		<stop  offset="1" style="stop-color:#EBCDAA"/>
	</linearGradient>
	<path class="st1" d="M158.39-129.86C117.15,49.3,188.65,243.6,276.11,419.43c113.71,228.6,254.01,465.41,198.34,704.25
		c-32.9,141.14-132.47,270.35-183.58,408.82c-85.46,231.53-31.85,475.64-47.35,714.48c-12.91,199-74.88,396.38-181.85,581.05h492.77
		c21.85-53.32,35.65-108.21,43.2-163.42c20.09-146.78-2.83-295.05-38.57-439.78c-62.44-252.81-159.92-507.45-115.88-762.14
		c27.28-157.76,108.39-309.85,123.52-468.4c23.63-247.69-115.14-492.63-90.63-740.28c13.11-132.44,72.34-259.66,141.65-383.89
		H158.39z"/>
	
		<linearGradient id="SVGID_00000043428519058169068190000009073998715085606030_" gradientUnits="userSpaceOnUse" x1="2455.4253" y1="-625.6934" x2="2406.6892" y2="383.1305" gradientTransform="matrix(-0.1164 -0.9932 0.9932 -0.1164 2770.7544 2413.3621)">
		<stop  offset="3.356507e-07" style="stop-color:#FFF2B3"/>
		<stop  offset="1" style="stop-color:#EBCDAA"/>
	</linearGradient>
	<path style="fill-rule:evenodd;clip-rule:evenodd;fill:url(#SVGID_00000043428519058169068190000009073998715085606030_);" d="
		M1841.39-1427.27c-17.1,182.14,79.78,367.84,190.06,533.57c143.37,215.47,314.24,436.38,290.75,679.27
		c-13.88,143.53-95.58,282-127.91,424.73c-54.05,238.66,31.69,475.64,48.09,714.45c13.67,198.97-21.6,401.31-103.26,595.62
		l489.42-50.18c14.6-55.19,21-111.11,21.15-166.7c0.41-147.82-42.09-292.76-96.85-432.86c-95.67-244.73-226.39-487.71-216.56-745.16
		c6.09-159.46,66.4-318.78,60.32-477.79c-9.5-248.41-179.94-477.56-188.57-726.02c-4.61-132.87,37.28-265.26,89.58-395.7
		L1841.39-1427.27z"/>
</g>
</svg>
